<svg width="104" height="171" viewBox="0 0 104 171" fill="none" xmlns="http://www.w3.org/2000/svg">
<path fill-rule="evenodd" clip-rule="evenodd" d="M50.1478 0.206248C41.3891 2.126 40.2291 2.50326 34.9601 5.14641C28.5164 8.37817 25.5695 10.5428 20.8095 15.54C17.0568 19.4788 14.6752 22.624 13.8286 24.7571C13.5442 25.4737 13.0205 26.509 12.6646 27.0573C12.3087 27.6056 11.5526 29.3104 10.9848 30.8458C10.4167 32.3811 9.39911 35.1116 8.72308 36.9137C8.04705 38.7154 7.24684 41.3175 6.94493 42.6961C6.09354 46.5843 5.43338 57.5656 5.89597 60.1565C6.11139 61.3629 6.57835 64.1444 6.93382 66.3377C7.60667 70.4923 7.71895 70.8971 10.0553 77.6341C11.9505 83.0975 13.155 85.4025 15.3886 87.8391C16.4101 88.9541 17.8852 90.6736 18.666 91.6606C19.4467 92.6476 20.9991 94.0821 22.1163 94.8481C24.2932 96.3412 25.4798 98.4041 25.9841 101.572C26.1285 102.481 26.4236 103.225 26.6391 103.225C26.8549 103.225 26.9382 102.867 26.8239 102.428C26.7101 101.989 26.7783 101.63 26.9763 101.63C27.1739 101.63 27.3357 101.875 27.3357 102.175C27.3357 102.474 27.6662 103.147 28.0701 103.67C28.474 104.193 28.7267 104.846 28.6319 105.12C28.3704 105.877 29.2238 105.715 29.6844 104.92C30.0387 104.309 30.0902 104.344 30.1009 105.199C30.1101 105.96 30.2188 106.07 30.5889 105.698C31.261 105.022 32.3643 105.104 32.6492 105.85C33.0423 106.88 32.9213 115.114 32.4567 118.921C31.8862 123.595 30.4596 128.415 29.1258 130.173C27.4734 132.35 25.2275 133.775 22.2794 134.515C20.8055 134.886 17.9034 135.795 15.8305 136.536C13.7576 137.278 10.4822 138.17 8.55169 138.52C4.56771 139.242 1.06933 140.448 0.31832 141.358C-0.0855526 141.847 -0.100232 142.69 0.246512 145.43C1.06616 151.905 3.68499 156.763 8.49099 160.721C10.0184 161.979 11.4577 163.016 11.6894 163.026C11.9211 163.035 12.8348 163.395 13.7195 163.825C17.8685 165.84 25.1529 168.143 31.6998 169.512C37.1041 170.641 38.1375 170.726 48.7715 170.913C59.1302 171.095 60.4616 171.041 64.4595 170.272C71.5451 168.909 76.751 167.261 83.4855 164.249C91.2396 160.781 93.9211 159.194 98.6518 155.275C103.468 151.284 104.108 150.091 103.987 145.33C103.841 139.548 102.721 138.595 93.1931 136.135C90.0292 135.318 86.7264 134.52 85.8536 134.361C83.4244 133.918 81.1111 132.541 78.7577 130.137C74.9578 126.256 73.5228 121.8 73.115 112.616L72.8452 106.534L74.0925 106.097C74.8642 105.826 75.3426 105.386 75.3462 104.941C75.3513 104.331 75.4105 104.313 75.737 104.821C75.9484 105.15 76.1242 105.237 76.1277 105.015C76.1309 104.793 76.5122 104.434 76.9748 104.217C77.4377 104.001 78.4812 102.567 79.2937 101.032C80.1062 99.4968 80.9326 98.2725 81.1301 98.312C81.732 98.4312 82.8682 97.1806 84.3488 94.7692C85.1236 93.5074 85.9068 92.5675 86.0889 92.6803C86.271 92.7936 87.4528 91.8381 88.7156 90.5568C90.6767 88.5673 91.4297 87.3215 93.8843 82.0068C96.976 75.3132 97.4044 73.8421 98.9922 64.4786C99.9114 59.0579 99.9939 57.8177 99.7162 53.5766C99.5436 50.9446 99.373 46.3685 99.3365 43.4075C99.2219 34.0743 96.7185 26.6115 90.7136 17.7002C89.8955 16.4859 88.5565 14.4716 87.7381 13.2242C85.4279 9.70174 83.0376 7.52995 78.5141 4.84373C71.9998 0.975107 72.0208 0.981488 65.2236 0.90532C61.9505 0.868631 58.5585 0.640926 57.6857 0.398863C56.1388 -0.0298322 51.7383 -0.142291 50.1478 0.206248ZM63.868 1.68016C63.9592 1.75992 65.7294 1.92382 67.8023 2.04386C70.366 2.1926 71.0639 2.15352 69.9844 1.92183C68.4284 1.58764 63.543 1.39463 63.868 1.68016ZM73.6791 3.8013C73.9652 3.91655 74.3075 3.9022 74.4393 3.7698C74.571 3.6374 74.3369 3.54329 73.9187 3.56044C73.4565 3.57958 73.3625 3.67409 73.6791 3.8013ZM75.7699 5.25408C76.5241 5.84787 78.9108 7.13316 78.9108 6.94533C78.9108 6.64505 76.4566 5.12767 75.9683 5.12567C75.7683 5.12487 75.679 5.1827 75.7699 5.25408ZM80.7108 7.94509C80.829 8.29004 82.4735 9.99485 84.3651 11.7336C88.0134 15.0865 88.1463 15.0463 85.3514 11.4337C83.6894 9.28581 82.7083 8.48943 81.941 8.6649C81.7526 8.70797 81.3507 8.42244 81.0472 8.03003C80.6322 7.49367 80.5489 7.47253 80.7108 7.94509ZM90.9663 20.2779C91.3182 20.8263 92.1446 22.307 92.8024 23.5679C93.4598 24.8289 94.0874 25.8609 94.1965 25.8609C94.5539 25.8609 92.1117 21.2964 91.2083 20.2767L90.3264 19.281L90.9663 20.2779ZM96.6003 32.9446C96.726 33.6604 97.1696 35.3652 97.5854 36.7331C98.2539 38.9304 98.3142 39.0153 98.1027 37.4624C97.9706 36.4958 97.5274 34.791 97.1172 33.674C96.6098 32.2922 96.4448 32.0593 96.6003 32.9446ZM64.8019 43.857C63.1764 45.5965 59.8887 48.1958 59.3361 48.1786C59.083 48.1706 59.4115 47.7228 60.0661 47.1836C60.7207 46.6445 61.0777 46.2086 60.8595 46.215C60.0292 46.2405 58.6684 47.2626 57.2556 48.9215C55.5382 50.9386 51.6911 53.8944 51.0591 53.6827C50.8179 53.6017 51.4959 52.8883 52.5663 52.0967C56.488 49.1971 56.6748 48.4358 52.9074 50.7053C47.7238 53.8274 41.9224 56.7374 40.7314 56.8127C40.3323 56.8379 39.8776 56.9902 39.7209 57.1513C39.5642 57.3124 40.5072 57.3288 41.8164 57.1876L44.1968 56.9316L45.2616 58.7165C46.5348 60.8496 46.1694 61.4339 43.783 61.0813C42.9197 60.9537 40.2081 60.8281 37.7575 60.8022L33.3018 60.7547L31.8065 62.2765L30.3112 63.7987L31.8981 63.4729C34.3519 62.9696 37.6523 63.1917 39.7935 64.0044C41.4927 64.6497 41.9033 65.0441 43.0479 67.1353C44.6872 70.1298 44.7046 70.525 43.1974 70.525C42.1465 70.525 42.0279 70.4129 42.2282 69.6102C42.383 68.9897 42.2017 68.4637 41.6629 67.974C40.8877 67.2685 40.8563 67.284 40.2854 68.6571C39.6007 70.3053 38.6255 70.9238 36.7137 70.9238C35.2192 70.9238 33.6834 69.4937 33.6834 68.102C33.6834 66.2241 31.6962 66.9909 30.5108 69.3258L29.7161 70.8919L31.303 71.3696C32.9146 71.8549 33.2446 72.2517 32.4488 72.7458C32.2064 72.8966 31.8521 72.7725 31.6617 72.4703C31.4038 72.0611 31.3138 72.0499 31.309 72.4268C31.3023 72.9971 29.2968 72.6653 28.8782 72.0248C28.7449 71.8202 28.5216 71.6687 28.3823 71.6875C27.7206 71.7764 27.6694 71.6799 28.1014 71.1567C28.4739 70.7056 28.4037 70.5397 27.7535 70.3324C26.8842 70.0548 26.6296 69.3286 27.402 69.3286C27.6563 69.3286 27.7686 69.2321 27.6515 69.1145C27.0683 68.5283 25.333 70.0596 24.0936 72.2541C22.9447 74.2891 22.7325 75.0213 22.861 76.5068C22.9467 77.4938 23.1693 78.6602 23.3557 79.0989C23.5422 79.5375 23.8921 81.2057 24.1333 82.8056C26.1082 95.9025 36.4502 109.287 47.6829 113.282C52.4937 114.994 56.0861 114.719 61.0285 112.262C64.5983 110.487 69.9744 106.266 71.7597 103.837C72.5714 102.733 73.5264 101.586 73.881 101.291C75.1085 100.266 78.8481 93.8444 79.6928 91.3097C80.1593 89.91 80.9786 86.606 81.513 83.9677C82.0478 81.3289 82.6548 78.5262 82.8623 77.7386C83.0697 76.9514 83.4268 74.7717 83.6557 72.8946C84.0247 69.867 83.9854 69.2365 83.3054 67.3116L82.5393 65.1414L82.5104 67.9129C82.4774 71.0458 81.9085 71.057 81.5042 67.9329C81.3622 66.8362 80.9631 64.8032 80.6176 63.4154C79.9629 60.7874 79.5761 60.417 76.9272 59.8834C74.686 59.432 61.8708 60.0086 61.2761 60.5872C60.679 61.1683 59.471 61.0135 59.471 60.3559C59.471 60.0269 59.6495 59.7578 59.8677 59.7578C60.0859 59.7578 60.2644 59.4403 60.2644 59.0527C60.2644 58.6651 60.7108 57.6877 61.2563 56.8805C61.8018 56.0738 62.2481 55.2156 62.2481 54.9735C62.2481 54.7319 62.5448 53.9598 62.9075 53.2576C63.2701 52.5557 63.6049 51.5089 63.6513 50.931C63.6977 50.3532 64.3829 48.5275 65.174 46.8746C66.8704 43.3286 67.0021 42.6455 65.585 44.7419C65.0201 45.5773 64.4583 46.1612 64.3369 46.0387C64.2151 45.9167 64.5908 45.0952 65.1712 44.2131C66.4408 42.285 66.3515 42.1988 64.8019 43.857ZM69.6781 45.748C69.0735 46.9831 68.3593 48.3529 68.0912 48.7923C67.8234 49.2318 66.9061 50.7572 66.0531 52.182C65.2006 53.6069 64.2548 55.0653 63.9521 55.423C63.4696 55.9924 63.5141 56.1005 64.3127 56.2963C64.8138 56.4191 65.9825 56.4558 66.9097 56.3777C67.8368 56.2995 68.5958 56.3749 68.5958 56.5455C68.5958 56.9639 70.6362 56.5711 71.3479 56.0156C71.8038 55.6598 71.868 55.7053 71.6685 56.2409C71.4737 56.7645 71.607 56.8753 72.2767 56.7453C73.3701 56.534 75.6905 57.314 76.7657 58.2551C77.8015 59.1616 79.3075 59.4934 79.3075 58.8154C79.3075 58.5415 78.3836 56.8917 77.2541 55.1494C76.125 53.4071 74.2663 50.1283 73.1241 47.8632C71.9819 45.5981 70.9865 43.6903 70.9127 43.6237C70.8385 43.5571 70.2831 44.513 69.6781 45.748ZM91.507 58.8254C91.78 58.9363 92.2263 58.9363 92.4989 58.8254C92.7718 58.7149 92.5485 58.6244 92.0029 58.6244C91.4574 58.6244 91.2345 58.7149 91.507 58.8254ZM92.8373 61.8319C92.5326 62.5552 91.9684 63.8206 91.584 64.6429C91.1964 65.472 91.0659 66.1383 91.2912 66.1383C91.5181 66.1383 91.4432 66.5343 91.1214 67.0356C90.8048 67.5293 90.324 69.0794 90.053 70.4807C89.7824 71.8825 89.3667 73.4975 89.129 74.0698C88.8914 74.6425 88.6823 75.2558 88.6641 75.4328C88.6272 75.789 86.8006 77.2816 86.3844 77.2956C85.9131 77.3115 86.4836 74.3378 87.4921 71.522C87.8063 70.6446 88.1182 68.5773 88.1848 66.9283C88.2519 65.279 88.5276 63.5139 88.7982 63.0059C89.0687 62.4978 89.1913 61.983 89.0707 61.8618C88.9501 61.7401 88.651 62.1596 88.4058 62.7929C88.1606 63.4266 87.798 64.3625 87.5996 64.8726C87.4013 65.3826 87.0474 67.5281 86.8129 69.6401C86.5495 72.0141 86.1242 73.8672 85.6989 74.4949C84.0949 76.8613 83.912 80.0958 85.3827 80.0958C87.16 80.0958 89.2211 76.8804 90.3736 72.31C90.8175 70.5497 91.7308 67.7686 92.4033 66.1296C93.1408 64.3314 93.5796 62.6266 93.5089 61.8326L93.3915 60.5163L92.8373 61.8319ZM68.1035 63.5155C65.8365 64.3287 64.8542 65.1115 63.4764 67.2027C61.9791 69.4746 61.9466 71.0522 63.3919 71.2576C64.2298 71.3768 64.3139 71.2675 64.1294 70.2985C63.9774 69.4981 64.171 68.9546 64.8522 68.2699C66.0706 67.0452 66.415 67.0894 67.0152 68.5462C67.604 69.9751 68.4819 70.525 70.1748 70.525C71.8046 70.525 73.3566 68.9777 73.3566 67.3526C73.3566 65.988 73.6061 65.8799 74.8058 66.7242C76.0016 67.566 76.2864 68.9645 75.3144 69.2198C74.8923 69.331 74.5468 69.5803 74.5468 69.7741C74.5468 69.9675 74.3131 70.1262 74.0274 70.1262C73.0979 70.1262 71.9287 71.2288 72.3747 71.6847C72.8309 72.1508 75.737 71.4354 75.737 70.8568C75.737 70.6741 76.1131 70.525 76.5729 70.525C77.1168 70.525 77.3362 70.3344 77.2009 69.9802C77.0616 69.6154 77.5008 69.282 78.5303 68.9721C80.2748 68.4465 80.8556 67.8073 80.0526 67.2964C79.7519 67.1046 79.646 66.9455 79.8173 66.9419C80.5719 66.9271 79.0909 65.1848 77.4163 64.1177C75.7945 63.0836 75.2343 62.95 72.5845 62.9656C70.9361 62.9752 68.9199 63.2228 68.1035 63.5155ZM33.981 64.4084C34.2539 64.5193 34.7003 64.5193 34.9728 64.4084C35.2458 64.2979 35.0224 64.2074 34.4769 64.2074C33.9314 64.2074 33.7084 64.2979 33.981 64.4084ZM50.214 83.9509C49.3694 84.7999 50.6818 86.8752 52.0636 86.8752C52.9928 86.8752 52.8928 86.0465 51.9331 85.7945C51.4197 85.6593 51.1396 85.2506 51.1396 84.6352C51.1396 83.7077 50.7457 83.4165 50.214 83.9509ZM55.2061 88.0839C54.715 88.2825 54.3135 88.6263 54.3135 88.8488C54.3135 89.4873 56.1392 89.7796 57.0537 89.2879C58.0427 88.7559 58.1181 88.247 57.2564 87.9148C56.4864 87.6177 56.3277 87.6309 55.2061 88.0839ZM46.6518 88.3292C46.1341 88.8492 46.3812 89.2679 47.2052 89.2679C47.667 89.2679 47.9626 89.059 47.8749 88.7946C47.6817 88.2115 47.0192 87.9595 46.6518 88.3292ZM48.9576 88.4704C48.5049 89.2069 49.1913 89.6667 50.7429 89.6667C52.6159 89.6667 53.0542 89.1475 51.7038 88.5286C50.4739 87.9655 49.2837 87.94 48.9576 88.4704ZM50.7429 94.0131C50.7429 94.5873 51.7244 95.2497 52.575 95.2497C55.3057 95.2497 55.4481 93.8763 52.7261 93.7937C51.6355 93.7607 50.7429 93.8591 50.7429 94.0131ZM58.2808 96.7077C56.8625 97.0339 55.0561 97.4885 54.2666 97.7178C53.159 98.0392 52.2386 97.985 50.2351 97.4797C46.6014 96.5637 41.4225 96.1952 41.0353 96.8249C40.4834 97.7222 41.4828 98.0903 44.8367 98.2255C46.6669 98.2992 49.2353 98.6171 50.5445 98.9317C52.1152 99.309 53.3974 99.3911 54.3135 99.1726C55.0772 98.9903 57.815 98.5864 60.3977 98.2745C62.9801 97.9623 65.1712 97.6285 65.2668 97.5324C65.3624 97.4363 65.3279 97.063 65.1906 96.7025C64.8713 95.8662 61.9267 95.8682 58.2808 96.7077ZM45.9821 100.437C45.9821 101.54 47.4282 103.249 48.7438 103.701C50.8782 104.433 55.8456 104.318 57.3762 103.501C58.6224 102.835 59.7435 101.372 59.3278 100.954C59.2135 100.839 58.5335 101.165 57.8166 101.679C56.8446 102.374 55.8393 102.65 53.8628 102.762C50.8429 102.934 48.8644 102.402 47.1624 100.962C46.5133 100.414 45.9821 100.177 45.9821 100.437ZM34.0135 110.2C34.1635 115.274 33.3236 122.292 32.0477 126.624C31.334 129.048 30.8135 129.916 28.6426 132.307C27.2334 133.86 25.6655 135.234 25.1585 135.362C24.6518 135.49 23.8413 136.018 23.3577 136.536C22.6047 137.341 22.5178 137.742 22.7531 139.319C23.2006 142.318 25.0517 145.974 26.9501 147.607C29.077 149.437 33.153 151.881 36.2622 153.189C44.0532 156.47 50.3569 157.462 58.5113 156.691C64.6082 156.115 68.3149 155.188 73.2784 153C76.5757 151.547 77.5028 150.906 80.0859 148.295C81.7308 146.632 83.3701 144.65 83.7291 143.889C84.0878 143.128 84.6015 142.027 84.8701 141.441C85.5672 139.922 85.0324 137.615 83.6934 136.365C83.0828 135.794 81.1769 134.135 79.4579 132.678C77.5988 131.103 75.8123 129.16 75.0498 127.886C72.969 124.407 71.4884 117.105 71.3305 109.541L71.2666 106.485L67.2318 110.021C65.0129 111.965 62.4147 114.507 61.4586 115.669C60.5025 116.83 60.199 117.347 60.7842 116.816C62.4707 115.286 62.5135 116.191 60.8437 118.07C60.0097 119.008 59.179 119.877 58.9969 120.002C58.8152 120.126 58.9552 120.81 59.3083 121.522C59.6614 122.234 59.8427 122.924 59.7106 123.057C59.5789 123.189 59.4154 123.223 59.3472 123.132C59.2793 123.04 58.5803 122.068 57.794 120.971C55.3382 117.547 54.2948 116.793 50.5302 115.728C47.4318 114.85 44.684 113.62 40.4279 111.205C39.6642 110.771 37.8789 109.365 36.4606 108.08L33.8818 105.744L34.0135 110.2ZM60.2343 115.488L59.2726 116.585L60.3636 115.618C60.9635 115.086 61.4546 114.593 61.4546 114.521C61.4546 114.208 61.1333 114.463 60.2343 115.488ZM57.2513 117.283L56.4955 118.18L57.3881 117.42C58.2268 116.706 58.4613 116.385 58.1439 116.385C58.0685 116.385 57.667 116.789 57.2513 117.283ZM36.5367 142.99C36.0333 143.086 35.6905 143.376 35.7746 143.633C35.869 143.92 37.6448 144.255 40.3759 144.5L44.824 144.899L46.4249 146.593C47.3052 147.525 48.1475 148.288 48.297 148.288C48.4462 148.288 48.7842 147.941 49.0484 147.515C49.6499 146.548 49.0187 144.468 47.9487 143.892C46.5871 143.16 38.8409 142.547 36.5367 142.99ZM58.637 143.615C57.5714 144.335 57.2632 144.836 57.166 146.008C57.0604 147.277 57.16 147.491 57.8547 147.491C58.4002 147.491 58.8485 147.054 59.219 146.162C59.5229 145.431 60.2394 144.463 60.8115 144.011C61.3832 143.559 61.8514 143.08 61.8514 142.947C61.8514 142.37 59.8725 142.781 58.637 143.615Z" fill="black"/>
</svg>
