<svg width="133" height="176" viewBox="0 0 133 176" fill="none" xmlns="http://www.w3.org/2000/svg">
<path fill-rule="evenodd" clip-rule="evenodd" d="M59.0308 0.241445C56.1231 0.510147 49.305 1.84903 43.9989 3.1936C40.9837 3.95736 37.3534 4.7389 35.9315 4.93002C34.51 5.12078 33.1172 5.46885 32.8367 5.70303C32.2358 6.20484 32.1785 8.158 32.7083 10.0788C32.9159 10.8311 33.0192 11.5137 32.9375 11.596C32.8562 11.6782 32.2319 11.5109 31.5507 11.2244C30.4465 10.7603 30.2247 10.7653 29.5067 11.271C28.7707 11.7899 28.7173 12.0383 28.887 14.1662C29.0568 16.2945 29.0023 16.55 28.2497 17.1458C26.9509 18.1736 26.5502 19.9517 26.8324 23.4359C27.2141 28.1462 27.2035 29.0808 26.7253 32.9116C26.0805 38.0799 25.6525 49.0067 25.9125 53.6589L26.1374 57.6795L24.8433 57.4592C23.0621 57.156 21.4577 58.0432 20.761 59.7163C20.0635 61.3915 20.3358 65.1551 21.3711 68.1453C21.7775 69.3198 22.4909 71.8822 22.9563 73.8397C24.4309 80.0412 25.7431 82.7712 27.7517 83.8165C28.6059 84.261 28.7487 84.6198 29.1265 87.2616C30.0051 93.4118 30.9466 96.8768 32.6871 100.367C34.4255 103.852 37.0591 108.011 38.5411 109.609C39.269 110.394 39.3924 110.967 39.5774 114.414C39.6927 116.566 39.8533 118.756 39.9339 119.281C40.074 120.19 39.9456 120.28 37.1765 121.198C32.4643 122.762 31.8998 123.154 29.9414 126.23C28.2076 128.953 24.6675 135.042 24.468 135.645C24.4121 135.814 22.4682 136.273 20.1487 136.666C14.8918 137.556 12.7226 138.119 7.97004 139.827C1.50914 142.147 -0.351986 143.339 0.0526375 144.895C0.324981 145.942 1.78856 146.108 3.28609 145.261C4.71218 144.455 9.32432 142.659 12.6971 141.598C14.8034 140.935 23.5339 139.047 23.6528 139.229C23.6867 139.282 24.6205 141.126 25.7275 143.328C28.0838 148.015 31.568 153.773 34.3661 157.605C37.2568 161.564 45.6849 170.11 46.6983 170.11C47.5047 170.11 47.8743 169.695 53.5107 162.458C54.5778 161.088 55.6484 159.743 55.89 159.47C56.2564 159.056 56.8588 159.399 59.5475 161.557C61.8133 163.375 62.7142 164.313 62.5897 164.723C61.6025 167.968 59.915 174.187 59.915 174.579C59.915 175.273 61.4646 176.222 62.1599 175.953C62.5048 175.82 63.0251 174.709 63.4555 173.187C64.5912 169.171 68.0298 158.596 68.3838 158.031C68.8062 157.357 70.0144 158.204 75.9504 163.336C78.4478 165.496 80.6761 167.26 80.9021 167.257C81.63 167.247 82.0756 166.78 84.0114 163.999C89.4586 156.173 96.9095 146.162 102.508 139.147C103.68 137.678 104.653 136.44 104.672 136.394C104.69 136.348 105.968 136.841 107.511 137.491C109.053 138.139 111.908 139.215 113.853 139.88C118.095 141.331 122.426 143.501 127.552 146.743C130.656 148.707 131.47 149.078 132.02 148.782C132.815 148.354 133.185 147.536 132.91 146.814C132.654 146.144 127.17 142.576 122.872 140.284C121.024 139.298 116.687 137.496 113.234 136.279C107.649 134.312 106.956 133.98 106.956 133.279C106.956 132.845 106.11 130.745 105.077 128.611C104.043 126.478 102.831 123.812 102.383 122.687C101.461 120.37 100.222 119.132 97.0927 117.401L94.9306 116.205V111.821V107.438L96.2254 105.408C96.9378 104.292 98.5085 101.457 99.7164 99.1083C101.787 95.081 102.718 92.1936 103.568 87.1527C103.73 86.1918 104.109 85.6615 105.091 85.0173C107.552 83.4054 108.321 81.8035 109.274 76.3071C109.747 73.5799 110.453 70.2825 110.844 68.9799C112.128 64.6953 111.616 61.7598 109.424 60.8459C108.562 60.4868 108.362 60.2231 108.507 59.6391C108.61 59.2284 108.941 56.8901 109.242 54.4433C109.985 48.4187 109.513 42.1667 107.968 37.6002C107.076 34.9619 106.966 34.2836 107.285 33.3654C107.973 31.3781 107.761 29.9082 106.634 28.8487C105.656 27.9291 105.624 27.8081 105.998 26.4023C106.357 25.0485 106.318 24.8467 105.55 24.0238C105.089 23.5291 104.52 23.1245 104.288 23.1245C104.048 23.1245 103.786 22.4184 103.682 21.492C103.474 19.6307 103.059 19.0705 101.851 19.0171C101.264 18.9915 100.373 18.2384 98.9662 16.5803C95.1619 12.096 88.0162 6.53582 83.1505 4.27375C75.405 0.673148 67.9145 -0.578895 59.0308 0.241445ZM75.1238 24.4883C72.382 25.2716 69.4286 26.5119 67.6149 27.6415C65.9066 28.7053 64.8377 28.6782 63.0222 27.5251C60.9917 26.235 58.3616 25.6535 53.3717 25.3915C48.7274 25.1478 45.1898 25.5489 41.933 26.6888C38.4799 27.8974 38.4498 27.9721 35.8756 41.6311C33.3666 54.9469 32.2185 59.3227 30.4783 62.2058C29.7766 63.3681 29.7748 63.4632 30.3591 69.1458C31.7802 82.9684 32.043 85.1468 32.8806 90.0329C33.6212 94.3528 34.0223 95.7344 35.3437 98.5143C37.6579 103.383 40.0856 106.73 45.067 111.921C47.5093 114.465 50.1188 117.268 50.8658 118.149C53.0354 120.706 56.707 123.727 59.3845 125.159C61.6428 126.366 62.1571 126.494 65.2399 126.625C74.6286 127.021 77.9236 125.056 86.125 114.167C93.7885 103.992 98.1828 96.4052 99.5105 91.0561C100.598 86.6754 101.266 79.5475 101.659 68.1208L102.026 57.4193L99.9063 52.9952C97.5808 48.1415 95.5488 41.5901 94.7629 36.4144C94.1708 32.5166 93.6124 30.3232 92.9792 29.4139C91.9362 27.9156 88.7873 25.961 85.974 25.0663C82.0884 23.8302 78.1588 23.621 75.1238 24.4883ZM46.6516 54.8348C41.9439 55.511 34.8818 58.3034 34.0838 59.8038C33.7782 60.3783 33.8161 60.7327 34.2554 61.4072C34.9578 62.4859 35.2991 62.4852 37.7368 61.4004C42.7415 59.1732 49.4415 58.6208 55.1229 59.9672C57.8169 60.6057 57.8979 60.6053 58.3701 59.9558C59.9769 57.7446 57.5817 55.6555 52.4854 54.8238C49.9176 54.4045 49.6449 54.4049 46.6516 54.8348ZM79.3044 55.5285C76.1177 55.9733 73.1106 57.1481 72.412 58.2212C71.9774 58.8885 71.9218 59.3604 72.1747 60.2377C72.4693 61.2605 72.6352 61.3773 73.7257 61.3253C74.3973 61.2933 76.1407 60.9082 77.5996 60.4694C79.8166 59.8024 81.1238 59.6682 85.5577 59.6519C90.496 59.6341 91.0375 59.6996 93.3817 60.5968C96.2668 61.7015 97.2412 61.7954 97.5454 60.9982C98.3147 58.9814 97.2044 58.1639 91.5592 56.5908C87.1362 55.358 83.0578 55.0046 79.3044 55.5285ZM23.681 60.8178C23.5718 60.9961 24.1592 61.6438 24.9865 62.2577C26.2308 63.1806 26.512 63.2731 26.6117 62.7916C26.8668 61.5588 24.2915 59.8241 23.681 60.8178ZM81.4903 63.0147C78.6098 63.5721 74.7581 65.1636 74.1943 66.0295C73.0374 67.8062 74.9579 68.9692 77.1752 67.8346C78.8779 66.963 79.7218 66.804 79.7218 67.3545C79.7218 67.6307 80.0221 68.1304 80.3889 68.4646C80.9533 68.9785 81.4786 69.0336 83.796 68.8222C86.3203 68.592 86.5806 68.493 87.108 67.5602C87.4224 67.0036 87.8157 66.5474 87.9816 66.5459C88.1475 66.5449 89.0614 66.984 90.0128 67.5222C91.9214 68.6016 92.882 68.4183 93.1009 66.9328C93.2534 65.8989 92.6648 65.238 90.7085 64.2468C87.8192 62.783 84.7853 62.3773 81.4903 63.0147ZM42.328 64.0354C40.2547 64.7864 37.7184 66.4032 37.1366 67.3446C36.6386 68.1503 37.2338 69.1689 38.2952 69.3276C38.7172 69.391 39.8656 68.945 40.8475 68.3375L42.6322 67.2325L43.6763 68.3571C44.7137 69.4742 44.7367 69.4799 47.2776 69.2401C49.5741 69.023 49.93 68.8842 50.7678 67.8777L51.7005 66.7573L53.5578 67.7264C55.7507 68.8714 56.7318 68.7333 56.7318 67.2787C56.7318 66.1164 55.0687 64.8351 52.3573 63.9087C49.9908 63.1005 44.7264 63.1671 42.328 64.0354ZM107.487 64.3194C106.341 67.1456 105.16 71.3124 104.86 73.5888C104.51 76.238 104.185 81.4914 104.371 81.4914C104.811 81.4914 105.634 78.7211 106.233 75.2252C106.632 72.8973 107.347 69.5824 107.823 67.8592C108.629 64.9384 108.687 63.6966 108.017 63.6966C107.864 63.6966 107.626 63.9767 107.487 64.3194ZM55.3878 85.1216C54.7405 85.7729 54.8724 88.9788 55.6046 90.3945C56.0704 91.2953 56.869 91.9533 58.5225 92.8004C59.7746 93.4417 61.4975 94.5489 62.3509 95.261C65.8967 98.22 68.2615 98.0566 71.8886 94.6023C73.1916 93.3613 74.7821 92.0669 75.423 91.7256C76.6907 91.0504 76.8615 89.887 75.7923 89.2126C74.8638 88.6275 72.0881 89.9934 69.9659 92.0793C67.5007 94.5026 66.3926 94.5845 64.0564 92.5153C63.1669 91.7277 61.5746 90.6981 60.5174 90.2276C58.4373 89.3019 58.1466 88.8905 58.1466 86.8719C58.1466 85.3796 57.6457 84.6945 56.555 84.6945C56.1464 84.6945 55.6212 84.8867 55.3878 85.1216ZM81.844 98.0513C77.2184 99.8539 74.2028 100.391 67.5 100.604C60.662 100.822 56.5656 100.34 51.3086 98.7001C47.9295 97.6455 47.1103 97.753 46.8864 99.2795C46.7931 99.9151 47.6182 100.92 50.7144 103.94C52.8996 106.071 55.3775 108.138 56.2646 108.57C58.5183 109.668 65.7909 110.239 70.6323 109.698C75.6515 109.138 77.4928 108.138 82.3939 103.309C84.5419 101.193 86.4073 99.1784 86.5396 98.8321C86.7723 98.221 85.7162 96.7412 85.1156 96.8373C84.9695 96.8608 83.4975 97.4071 81.844 98.0513ZM76.1849 103.056C73.0911 103.831 66.3887 104.214 61.6739 103.884C59.3074 103.719 57.1078 103.512 56.7863 103.425C56.4644 103.338 55.7238 103.159 55.1402 103.027L54.0791 102.787L54.9439 103.714C56.6933 105.588 58.9795 106.323 63.8057 106.564C71.2792 106.937 74.4422 106.223 77.7765 103.41C78.9759 102.398 78.8867 102.378 76.1849 103.056ZM88.3194 116.623C80.2973 127.356 77.0033 129.442 67.4172 129.854L62.3633 130.071L64.4992 132.491C65.6739 133.821 66.6352 135.19 66.6352 135.534C66.6352 136.382 65.9458 137.011 65.0163 137.011C64.322 137.011 63.3108 136.002 58.3185 130.323C58.096 130.07 56.4941 129.567 54.7586 129.205C51.2128 128.465 47.4173 127.105 45.1197 125.75L43.5801 124.842L43.6965 128.88C43.7605 131.101 43.6859 133.119 43.5313 133.363C43.1599 133.95 41.7126 133.933 41.2196 133.335C41.0052 133.075 40.7775 132.519 40.7138 132.099C40.5529 131.037 40.2819 130.855 39.7762 131.469C39.4179 131.903 40.2452 133.301 44.5722 139.574C50.4081 148.033 52.6866 151.035 55.16 153.524C56.7322 155.106 63.5903 160.856 63.905 160.856C63.9832 160.856 64.2495 160.175 64.4968 159.344C65.2194 156.913 66.4527 154.73 68.7948 151.735C71.1713 148.698 71.9989 147.785 80.8529 138.435C84.097 135.009 87.8733 130.845 89.2457 129.181L91.7403 126.156L91.7438 119.305C91.7456 115.537 91.677 112.454 91.591 112.454C91.5051 112.454 90.033 114.33 88.3194 116.623ZM94.9306 120.972C94.9306 121.836 95.0926 122.036 95.8675 122.129C97.0004 122.265 97.7385 123.267 97.2278 123.975C92.3384 130.756 89.5569 133.968 78.6643 145.412C76.036 148.174 73.1325 151.4 72.2119 152.582L70.5382 154.73L73.7999 157.348C75.5939 158.788 77.8387 160.66 78.7884 161.507C79.7381 162.354 80.6382 162.915 80.7885 162.752C81.2971 162.204 84.4928 157.857 88.1998 152.671C90.2286 149.832 94.5065 144.168 97.7067 140.082L103.525 132.654L101.754 129.049C100.78 127.067 99.7008 124.688 99.3567 123.762C98.8735 122.462 98.3525 121.835 97.0651 121.004C96.149 120.412 95.2938 119.928 95.1647 119.928C95.036 119.928 94.9306 120.398 94.9306 120.972ZM36.7482 124.568C35.3865 125.152 33.9951 125.988 33.6562 126.427C32.518 127.9 27.804 136.109 27.3679 137.377C26.9608 138.561 27.0294 138.821 28.5641 141.896C32.5566 149.894 37.9118 157.558 43.1097 162.71L46.5957 166.166L47.6847 164.71C48.2835 163.908 49.8479 161.874 51.1612 160.189C52.4744 158.504 53.5486 156.955 53.5486 156.747C53.5486 156.539 52.9777 155.817 52.2799 155.143C48.6577 151.642 34.4492 130.988 34.4492 129.225C34.4492 128.5 35.111 127.758 35.7579 127.758C36.0108 127.758 36.5381 128.08 36.9296 128.474L37.642 129.191L39.0935 128.446C40.4804 127.734 40.5355 127.642 40.3307 126.395C40.2126 125.676 40.1143 124.729 40.1122 124.288C40.1072 123.255 39.7373 123.286 36.7482 124.568ZM79.1502 157.455C78.845 158.255 79.1301 159.141 79.8325 159.573C80.7429 160.132 82.0077 158.626 81.4726 157.62C81.0471 156.82 79.436 156.705 79.1502 157.455ZM45.2619 159.28C44.5666 159.98 44.5475 160.993 45.2198 161.554C46.0096 162.213 46.9529 161.847 47.3438 160.729C47.6366 159.89 47.5814 159.635 47.018 159.22C46.1568 158.586 45.9442 158.594 45.2619 159.28ZM68.9416 163.213C68.2523 163.906 68.3559 164.731 69.1995 165.265C70.425 166.042 71.8051 164.292 70.8653 163.152C70.3086 162.477 69.6522 162.498 68.9416 163.213Z" fill="black"/>
</svg>
