<svg width="130" height="164" viewBox="0 0 130 164" fill="none" xmlns="http://www.w3.org/2000/svg">
<path fill-rule="evenodd" clip-rule="evenodd" d="M62.3024 0.421156C61.0265 0.711389 58.8958 1.46745 57.5675 2.10195C56.2392 2.73608 53.5133 3.90394 51.5101 4.69688C36.5847 10.6056 24.2015 23.9296 20.6864 37.8637C20.2376 39.6416 19.1355 42.2442 17.7544 44.7869C13.9974 51.7036 14.0313 51.5685 13.9599 59.9359C13.8936 67.7138 13.847 67.985 11.7057 73.0928C9.9338 77.3192 9.70871 79.0058 10.2168 84.2388C10.9161 91.4395 10.6382 92.2715 4.76185 100.562C3.15381 102.831 1.20777 106.994 0.522664 109.631C-0.155517 112.241 -0.174094 116.36 0.469122 121.633C0.797651 124.33 0.854833 126.368 0.642855 127.839C0.469121 129.044 0.230922 131.837 0.113642 134.046C-0.0739321 137.581 -0.00655248 138.308 0.677821 140.125C2.24689 144.29 4.68718 146.759 8.21139 147.748C9.08881 147.994 9.80669 148.267 9.80669 148.355C9.80669 148.443 9.39694 149.053 8.89613 149.711C7.59768 151.418 7.70148 152.4 9.2487 153.048C11.9261 154.169 15.6197 153.532 18.6828 151.419L20.2664 150.327L20.4799 152.879C20.8688 157.53 23.4097 161.499 27.0191 163.095C30.8281 164.78 36.8505 163.967 36.2332 161.851C36.1061 161.416 35.9087 160.549 35.7947 159.923C35.598 158.845 35.6595 158.77 36.9431 158.529C38.923 158.157 41.5956 155.489 43.1516 152.332C44.6853 149.221 46.1502 144.084 46.4667 140.708C46.5939 139.353 46.7709 138.244 46.8605 138.244C46.9501 138.244 47.869 138.964 48.9027 139.844C55.2962 145.286 62.141 147.7 69.8968 147.248C75.536 146.919 79.6259 145.705 85.5194 142.609C95.7263 137.248 106.198 126.367 114.403 112.598C116.048 109.837 117.518 107.578 117.67 107.578C118.109 107.578 119.98 110.525 120.684 112.324C121.16 113.541 121.294 114.724 121.201 116.887C121.081 119.698 121.108 119.812 121.912 119.926C122.395 119.995 123.511 119.555 124.552 118.885C128.101 116.602 130 113.065 130 108.734C130 105.135 129.218 103.189 126.936 101.105C124.868 99.217 119.727 96.3679 116.524 95.3351C115.272 94.9314 114.008 94.1782 113.155 93.3273C111.909 92.0853 111.789 91.7903 111.789 89.9719C111.789 87.3912 112.681 84.8309 115.766 78.5546C119.058 71.857 119.961 69.0762 119.974 65.5946C119.992 60.7588 117.996 56.5086 112.687 50.079C108.951 45.5547 108.169 43.5942 107.615 37.3672C107.21 32.8297 105.199 28.539 101.438 24.1906C100.207 22.7676 97.8199 19.8784 96.1339 17.7701C88.1108 7.73866 83.6615 4.44498 76.8411 3.48849C74.8666 3.21177 73.8369 2.86349 73.0637 2.21147C70.6292 0.157939 66.4891 -0.530587 62.3024 0.421156ZM65.8802 22.4562C65.1182 23.0746 65.073 23.2389 65.5181 23.7759C65.7975 24.1136 66.5205 24.6459 67.1247 24.9591C68.1875 25.51 68.2509 25.4958 69.0828 24.5265C69.5559 23.9756 69.8928 23.1746 69.832 22.7464C69.675 21.6428 67.1141 21.4548 65.8802 22.4562ZM60.7366 26.741C59.6683 27.6592 56.5819 29.9507 53.8776 31.8334C46.4602 36.997 43.4699 39.938 40.5969 44.8961L39.5811 46.6495L42.2676 46.4151C45.4808 46.1348 49.3317 46.7032 50.5956 47.6447C51.6569 48.4351 52.0594 50.5083 51.2144 50.8332C50.9259 50.9442 48.9686 50.7788 46.8648 50.4656C44.7607 50.1527 41.8939 49.8965 40.4939 49.8965H37.948L36.6721 53.2734C35.9702 55.1309 35.0269 57.8003 34.5756 59.2058C34.1247 60.6113 33.0503 63.2501 32.1881 65.0696L30.6205 68.3779L31.6975 73.8313C33.3092 81.9899 34.8684 87.8493 35.9185 89.6893C37.898 93.1582 49.3969 103.247 53.7843 105.364C62.498 109.57 72.8761 106.043 83.491 95.2683C86.7002 92.0112 87.2939 91.2124 88.993 87.864C90.5817 84.7335 91.6095 81.4051 92.0929 77.8245C92.6355 73.8054 93.2063 63.8028 93.2103 58.2482C93.2132 54.3186 93.0981 53.3781 92.4287 51.8613C91.4744 49.6993 90.6742 46.7787 90.6684 45.4375C90.6655 44.7559 90.2062 44.0151 89.1973 43.0645C88.3119 42.2303 87.3889 40.8339 86.8688 39.5423C86.144 37.7417 85.7805 37.3004 84.5786 36.7608C81.7675 35.4995 79.5476 32.9133 78.8792 30.1216C78.743 29.5524 78.11 28.8157 77.3568 28.3492C75.9979 27.5073 75.5608 27.5117 71.8261 28.4065C70.1765 28.8019 69.6528 28.7763 67.8805 28.2166C66.7455 27.8578 65.2235 27.0152 64.4568 26.3212C63.6981 25.6338 62.9871 25.0716 62.8775 25.0716C62.7682 25.0716 61.8045 25.8229 60.7366 26.741ZM71.5606 45.3568C67.6521 46.0884 66.4432 46.8207 66.4432 48.4566C66.4432 49.6854 66.476 49.7132 67.9001 49.6814C68.7014 49.6635 71.299 49.2941 73.6727 48.86C79.9708 47.7086 81.8928 47.7871 84.6522 49.3072C86.2981 50.2141 87.0586 50.4525 87.5055 50.202C88.9595 49.3865 87.6136 47.514 84.3324 45.7868C83.0896 45.1326 82.1168 44.9818 78.6447 44.9063C76.0897 44.8504 73.327 45.026 71.5606 45.3568ZM73.087 52.2435C69.8859 53.3884 68.1704 55.9034 69.9423 56.8536C70.5983 57.2056 70.8787 57.1012 71.872 56.1363C73.1427 54.9016 73.5456 54.7483 73.5456 55.4985C73.5456 56.4959 74.844 57.1979 76.6884 57.1979C78.5951 57.1979 79.3731 56.7536 79.3731 55.6646C79.3731 54.7311 80.4621 54.8403 81.9227 55.9201C83.3694 56.9898 83.5132 57.0117 84.2486 56.2746C85.9739 54.5453 81.2613 51.7058 76.7187 51.7379C75.4745 51.7466 73.8399 51.9741 73.087 52.2435ZM42.6031 52.5096C40.2254 52.9419 37.6977 54.611 37.5542 55.8438C37.4759 56.5163 37.6387 56.9139 38.0576 57.0752C38.6381 57.2983 39.014 57.1409 41.0154 55.8376C41.757 55.3546 41.8524 55.3974 42.3998 56.4586C42.9647 57.5535 43.0678 57.594 45.0259 57.4892C46.6179 57.4042 47.1522 57.2205 47.4658 56.6503C47.6869 56.2487 47.9018 55.8588 47.9437 55.7836C47.9852 55.7084 48.5384 56.0848 49.1733 56.62C50.4051 57.659 50.8746 57.6853 51.4642 56.7481C52.1085 55.7248 51.1769 54.4328 49.0775 53.438C46.8302 52.3735 44.8867 52.0946 42.6031 52.5096ZM55.4128 52.5432C55.2063 52.7944 54.85 54.8888 54.6206 57.1979C54.1351 62.0862 53.8302 63.6082 52.5219 67.666C51.5855 70.5716 51.576 70.691 52.1668 72.1987C52.5809 73.2556 52.6578 73.8872 52.4087 74.188C51.7829 74.9441 52.4134 75.8166 53.5858 75.8166C54.1839 75.8166 55.0901 76.1451 55.5993 76.5467C56.7793 77.4769 57.3912 77.4696 57.8986 76.5197C58.2511 75.8593 58.0661 75.5117 56.4544 73.8036C54.2851 71.5043 54.2203 71.0323 55.5155 66.9676C56.39 64.223 57.5198 57.1004 57.5198 54.3317C57.5198 52.4056 56.3455 51.4086 55.4128 52.5432ZM61.0502 73.6882C60.2311 73.9909 60.0504 74.2577 60.1396 75.0324C60.2438 75.9341 60.4088 76.0166 62.5876 76.2572C65.2679 76.5537 65.5327 76.4638 65.5327 75.2602C65.5327 73.8686 62.9835 72.9745 61.0502 73.6882ZM70.0855 84.4162C64.868 85.8561 52.7292 86.0682 49.5987 84.774C47.7579 84.0132 46.9573 84.2246 46.9573 85.4713C46.9573 87.4346 50.4302 88.3123 58.0497 88.2743C62.9576 88.2498 68.8282 87.6029 71.8111 86.7574C73.3638 86.3175 74.0245 85.4234 73.4968 84.4775C73.0863 83.743 72.5589 83.7335 70.0855 84.4162ZM82.6693 99.7584C78.8191 103.194 75.3558 105.489 69.5391 108.458C64.5358 111.012 59.7681 112.768 55.9493 113.466C53.7191 113.873 53.4875 113.995 53.6587 114.673C53.7632 115.087 55.1666 118.372 56.7771 121.97C58.3874 125.569 59.7051 128.808 59.7051 129.168C59.7051 129.905 58.6795 130.568 57.9448 130.305C57.6779 130.209 57.1676 129.451 56.811 128.62C56.3576 127.564 55.7096 126.855 54.6559 126.264C53.8273 125.8 53.1491 125.562 53.1491 125.737C53.1491 126.343 55.2474 129.307 56.4708 130.429C59.4782 133.187 62.9525 134.347 68.0822 134.307C78.723 134.222 91.3018 126.822 100.455 115.263C101.48 113.968 102.319 112.788 102.319 112.641C102.319 112.495 101.787 112.535 101.135 112.731C100.484 112.927 98.5567 113.105 96.8514 113.126C94.4497 113.156 93.3687 112.996 92.0524 112.412C89.9276 111.47 87.1868 108.968 86.2387 107.105C85.3588 105.376 84.9978 101.498 85.476 98.9074C85.6705 97.8534 85.8111 96.9955 85.7882 97.0013C85.7656 97.0072 84.3619 98.2477 82.6693 99.7584ZM110.237 109.191C106.814 111.027 106.604 111.212 104.599 114.175C101.644 118.54 93.5643 126.57 89.2293 129.45C83.1894 133.461 78.1373 135.629 72.5553 136.605C67.0646 137.565 62.6284 137.049 58.3772 134.956C55.8943 133.735 52.2728 130.168 51.1882 127.877C50.5668 126.565 50.5107 126.534 49.7509 127.089C49.3164 127.407 48.4157 128.034 47.7499 128.483C46.541 129.299 46.5396 129.303 46.7629 131.625C47.0236 134.337 47.7608 135.489 50.8858 138.068C58.1972 144.101 65.9326 145.945 75.1307 143.848C86.8827 141.169 100.057 130.225 109.781 115.062C111.572 112.27 114.338 107.609 114.338 107.385C114.338 107.049 113.751 107.308 110.237 109.191Z" fill="black"/>
</svg>
