<svg width="100" height="161" viewBox="0 0 100 161" fill="none" xmlns="http://www.w3.org/2000/svg">
<path fill-rule="evenodd" clip-rule="evenodd" d="M61.7138 0.305969C60.9371 0.534141 58.6674 1.3426 56.67 2.10317C53.3835 3.35429 52.5591 3.50077 47.9947 3.64322C40.481 3.87824 36.4601 5.42312 31.6527 9.92216C30.3211 11.1684 28.4146 12.5314 27.4159 12.9508C23.9094 14.424 20.6124 17.1093 18.6029 20.1295C18.0364 20.981 16.5341 22.381 15.2647 23.241C12.8534 24.874 11.7381 26.1191 7.90437 31.4592C6.63333 33.2298 4.68601 35.3928 3.57677 36.2661C0.0226951 39.0641 -0.800053 41.4404 0.741741 44.4533C1.66294 46.2533 2.46027 46.9885 4.72353 48.1233C6.29236 48.91 6.41664 49.0823 6.1358 50.0819C5.96673 50.6843 5.83358 52.3547 5.84044 53.7934C5.84972 55.8123 6.07972 56.8139 6.8492 58.1842C8.52657 61.1717 11.0541 62.4651 12.4656 61.0574L13.2932 60.2321L13.2851 66.5702C13.2807 70.0559 13.0995 74.0853 12.8824 75.524C12.6649 76.9626 12.4805 81.5172 12.4721 85.6452C12.4579 92.6106 12.5427 93.5088 13.6539 98.1202C16.4587 109.763 21.0296 119.575 26.8728 126.494C27.8371 127.636 28.6264 128.679 28.6264 128.811C28.6264 128.944 27.8993 129.342 27.0108 129.697C24.8843 130.545 23.537 132.209 22.7271 134.987C19.9986 144.348 27.7746 154.093 41.5386 158.562C47.7998 160.595 50.9221 161.043 58.4858 160.997C63.6983 160.965 65.9579 160.771 68.8946 160.105C78.6042 157.903 85.793 153.26 88.9977 147.121C89.9992 145.202 90.136 144.507 90.1368 141.319C90.1376 138.833 89.9217 137.164 89.4484 135.996C88.181 132.869 87.8332 128.853 88.062 119.991C88.2439 112.925 88.4529 110.749 89.3358 106.711C89.9169 104.055 90.6759 100.417 91.0229 98.626C91.6067 95.6131 91.7213 95.3825 92.5542 95.5411C94.7928 95.968 97.7045 93.5829 98.8146 90.4134C99.4089 88.7173 100.151 73.9618 99.973 67.4028C99.8637 63.3814 99.7229 62.5387 98.999 61.5677C98.3493 60.6969 96.4371 59.3198 95.731 59.2144C95.6874 59.2079 96.2789 55.0429 97.0456 49.9587C98.0907 43.0263 98.34 40.4307 98.0427 39.578C97.7384 38.7047 97.7981 38.211 98.3001 37.4468C98.8723 36.5759 98.886 36.2484 98.409 34.8073C97.2062 31.1727 92.4525 25.6772 88.5211 23.3758C86.9939 22.482 86.8333 22.2128 86.1804 19.451C85.281 15.6449 83.6767 12.2831 81.4388 9.5141C80.4607 8.30403 79.3539 6.83561 78.9782 6.2509C77.8198 4.44565 75.3318 2.31766 73.081 1.20739C71.2947 0.325687 70.2702 0.12448 67.0284 0.0190463C64.8822 -0.0509745 62.4906 0.0782007 61.7138 0.305969ZM50.824 22.4583C46.3411 23.3963 42.5845 24.8885 39.4 26.9968C37.5592 28.2153 36.128 29.8463 32.0126 35.4162C26.6347 42.6951 23.3413 46.3503 18.8208 50.0577L16.0766 52.3085L16.1589 57.0751C16.2045 59.6969 16.3635 61.8418 16.5128 61.8418C16.6621 61.8418 17.2241 61.3673 17.7624 60.7874C21.0772 57.2152 28.9016 54.9809 31.3028 56.921C32.6723 58.0276 33.1243 59.1926 32.5093 60.0317C32.1119 60.5737 31.1136 60.8244 28.3887 61.0671C23.261 61.5242 20.896 62.3661 18.9729 64.4192C18.4347 64.9935 17.6825 65.4635 17.3016 65.4635C16.6992 65.4635 16.5818 66.0579 16.4062 69.9907C16.2949 72.4809 15.9834 76.8721 15.7142 79.7494C15.2002 85.2404 15.3652 91.6376 16.1088 95.0525C16.4244 96.5012 16.8033 97.1882 17.4432 97.4715C17.9347 97.6888 18.3128 98.1761 18.2829 98.5544C18.2535 98.9326 18.571 99.3503 18.9891 99.4827C19.4071 99.6151 19.7493 100.054 19.7493 100.458C19.7493 101.228 18.7284 101.846 18.0989 101.457C17.8968 101.333 17.7317 101.533 17.7317 101.902C17.7317 102.382 17.9319 102.49 18.4379 102.283C19.6536 101.786 20.2278 101.859 20.6911 102.572C21.0542 103.131 20.917 103.492 19.9652 104.484C19.3195 105.156 18.9846 105.705 19.2207 105.705C19.4571 105.705 19.8836 105.425 20.1689 105.082C20.4542 104.74 21.0663 104.513 21.5295 104.579C22.8438 104.766 22.7715 106.171 21.3794 107.501C20.7048 108.146 20.1528 108.855 20.1528 109.079C20.1528 109.302 20.7524 108.905 21.4852 108.197C22.6949 107.028 22.8902 106.962 23.6036 107.488C24.3476 108.036 24.3541 108.127 23.725 109.2C23.3598 109.823 22.6787 110.512 22.2119 110.73C21.7454 110.949 21.3633 111.356 21.3633 111.636C21.3633 112.468 21.9056 112.227 22.9858 110.917C23.6952 110.057 24.2137 109.765 24.7007 109.951C25.7498 110.352 25.5444 111.608 24.1447 113.344L22.8914 114.9L23.8045 116.52C24.3404 117.471 25.0667 118.191 25.5626 118.261C26.2368 118.357 26.395 118.645 26.3478 119.689C26.2703 121.388 26.6948 121.349 27.5422 119.576C27.9158 118.795 28.4965 118.05 28.8326 117.922C29.6763 117.599 30.7101 118.546 30.4402 119.394C30.2892 119.868 30.4809 120.161 31.0361 120.306C32.0715 120.576 32.1429 122.346 31.1483 123.087C30.4038 123.642 30.0213 125.826 30.6689 125.826C30.8771 125.826 31.0474 125.484 31.0474 125.066C31.0474 124.648 31.3755 123.901 31.7766 123.408C32.4621 122.563 32.5473 122.551 33.1892 123.191C33.6561 123.656 33.7937 124.214 33.6226 124.95C33.3809 125.991 33.3938 126 34.0023 125.223C34.5127 124.57 34.7698 124.505 35.3613 124.877C36.2276 125.421 36.1837 127.716 35.2895 128.609C34.5329 129.364 33.5677 128.602 33.3849 127.105L33.2534 126.027L33.0161 127.12C32.8132 128.054 33.006 128.37 34.3416 129.292C35.2011 129.886 36.0283 130.249 36.1796 130.098C36.3313 129.946 36.4935 129.084 36.5399 128.182C36.5863 127.28 36.803 126.364 37.0213 126.146C37.6859 125.483 38.8641 125.973 39.1603 127.036C39.3145 127.588 39.4585 127.813 39.4807 127.537C39.5029 127.26 39.9847 127.034 40.5508 127.034C41.5398 127.034 41.5757 127.118 41.4587 129.146C41.3461 131.099 41.2606 131.259 40.3281 131.259C39.4609 131.259 39.285 131.033 39.074 129.649C38.9388 128.764 38.8028 128.447 38.7713 128.945C38.7399 129.443 38.5575 129.85 38.3666 129.85C38.1754 129.85 38.1031 130.29 38.2064 130.828C38.4655 132.181 41.3021 132.737 42.1438 131.601C42.4856 131.139 42.5518 130.711 42.3186 130.474C42.1116 130.264 41.9421 129.325 41.9421 128.388C41.9421 127.041 42.1099 126.632 42.7455 126.431C43.1873 126.291 43.732 126.29 43.956 126.427C44.552 126.795 44.4684 130.545 43.8587 130.792C43.5085 130.934 43.4863 131.098 43.7873 131.329C44.0254 131.512 44.3373 131.978 44.4809 132.366C44.6762 132.894 45.1968 133.07 46.5699 133.07H48.3982V131.46C48.3982 130.483 48.587 129.85 48.8787 129.85C49.143 129.85 49.0369 129.615 48.6423 129.328C47.5956 128.564 47.9051 126.471 49.0902 126.303C49.7588 126.208 50.0473 126.429 50.2361 127.18C50.3749 127.731 50.3104 128.5 50.0925 128.888C49.8116 129.389 49.8593 129.755 50.2579 130.153C50.5666 130.461 50.8192 131.142 50.8192 131.666C50.8192 132.191 50.9879 132.724 51.1941 132.851C51.8037 133.227 51.8784 131.349 51.301 130.159C50.494 128.497 50.8144 126.459 51.9066 126.304C52.6447 126.199 52.8698 126.466 53.258 127.904C53.5873 129.123 53.5994 129.829 53.2991 130.308C52.9796 130.818 53.0195 131.042 53.4609 131.211C53.7834 131.334 54.0472 131.712 54.0472 132.051C54.0472 132.77 55.0419 132.841 56.7572 132.244C57.9621 131.826 57.9681 131.808 57.4403 130.333C56.7261 128.339 56.741 127.058 57.4823 126.775C58.3962 126.425 59.1342 127.245 59.6915 129.23C60.1329 130.803 60.2753 130.955 60.9222 130.552C61.5831 130.141 61.592 130.051 61.013 129.629C60.1854 129.026 60.6284 127.838 61.6812 127.838C62.121 127.838 62.6346 128.113 62.8231 128.448C63.1035 128.948 63.7971 128.611 66.662 126.584C69.631 124.484 70.0999 124.001 69.7694 123.385C68.565 121.14 70.1148 119.739 71.7067 121.634C72.6727 122.784 72.6872 122.787 72.4112 121.802C71.7006 119.265 71.7034 118.595 72.4261 118.318C72.9289 118.126 73.4083 118.379 74.0405 119.17C74.6022 119.872 75.128 120.179 75.4403 119.987C75.8236 119.751 75.801 119.601 75.3431 119.345C74.5651 118.911 73.2698 115.518 73.5773 114.719C73.7165 114.357 74.1834 114.153 74.7023 114.229C75.3471 114.322 75.8204 114.933 76.4386 116.47C77.0592 118.013 77.4086 118.464 77.7346 118.138C78.0603 117.814 77.965 117.33 77.382 116.344C76.4567 114.78 76.535 113.217 77.5478 113.025C78.0062 112.938 78.5501 113.398 79.111 114.346C80.1161 116.044 80.6104 115.935 79.8801 114.176C78.9871 112.027 80.3623 110.781 81.6321 112.59C82.4226 113.715 83.121 113.218 82.9972 111.618C82.9152 110.556 83.0549 110.311 83.8058 110.205C84.8492 110.057 84.942 109.461 84.0955 108.345C82.8967 106.764 83.9026 104.936 85.3242 106.112C86.1102 106.762 86.0852 106.303 85.2584 104.907C84.3824 103.428 84.7948 102.331 86.1308 102.585C86.9584 102.743 87.1347 102.619 87.1347 101.876C87.1347 101.38 86.8623 100.75 86.5294 100.474C86.1965 100.198 85.9242 99.5423 85.9242 99.0163C85.9242 98.1226 86.2732 97.8851 87.3913 98.0187C87.6435 98.0489 87.9558 97.7986 88.085 97.463C88.2528 97.0264 88.0559 96.8521 87.3942 96.8521C86.2393 96.8521 84.5926 95.1624 84.7823 94.1716C85.0086 92.9877 86.5238 93.0412 87.491 94.2678L88.344 95.3495L88.5926 94.1093C88.9779 92.1885 89.9471 91.5181 91.5382 92.071C94.5713 93.1257 96.0853 90.9169 96.3395 85.0649L96.5105 81.1248L95.3041 82.3281C93.4596 84.1675 91.0923 84.4858 90.51 82.9727C90.2195 82.217 91.0176 81.1957 92.2701 80.7208C93.3253 80.3208 93.9943 78.887 93.9943 77.027C93.9943 75.5123 93.4742 75.9381 92.8173 77.9904C92.1838 79.9699 90.9531 81.0653 90.0177 80.4826C89.1066 79.9152 87.7137 80.7695 88.413 81.4669C89.0384 82.0906 88.5195 83.1699 87.5939 83.1699C86.5928 83.1699 86.2002 82.1474 86.9241 81.4254C87.3231 81.0274 87.3611 80.7397 87.0552 80.4347C86.4265 79.8077 86.9765 78.7433 87.9292 78.7433C88.3799 78.7433 88.7487 78.5932 88.7487 78.4097C88.7487 78.2258 88.3404 78.0902 87.8408 78.1079C86.7231 78.1469 86.3006 76.4684 87.3292 76.0749C87.9066 75.8535 87.886 75.7332 87.1557 75.0548C86.1848 74.1525 86.1292 73.7747 86.8764 73.1561C87.1876 72.8986 87.3425 72.2692 87.234 71.7034C87.1056 71.0338 87.2537 70.6241 87.6835 70.4595C88.2129 70.2571 88.2322 70.1223 87.7944 69.6857C87.426 69.3183 87.1831 67.208 86.9991 62.783C86.6005 53.2034 86.6703 50.0412 87.3365 47.4911C90.3607 35.9111 81.5772 24.9605 67.0248 22.1681C62.786 21.3549 55.4716 21.4856 50.824 22.4583ZM58.4858 52.201C57.0433 52.372 54.9551 52.8501 53.8455 53.2638C51.2453 54.232 50.9201 55.5652 52.8214 57.4618C54.2377 58.8743 54.548 58.8719 59.6963 57.4119C62.1529 56.7149 63.5002 56.5842 66.8517 56.7166C70.8218 56.8739 71.1325 56.9544 74.8988 58.8067C78.9867 60.8172 79.9333 60.878 80.194 59.1472C80.5071 57.0667 71.8721 52.9399 66.0431 52.3849C64.6607 52.2529 62.9849 52.0879 62.3191 52.0175C61.6533 51.9471 59.9283 52.0296 58.4858 52.201ZM59.3182 60.6703C57.0134 61.1214 54.3583 63.5569 54.5343 65.0591C54.713 66.5842 56.1063 66.5605 57.8866 65.0019L59.3848 63.6901L60.1729 64.7689C60.9202 65.7923 61.09 65.8357 63.4558 65.6132C65.184 65.4502 66.1564 65.144 66.6205 64.616C67.4767 63.6422 67.5497 63.6486 70.0684 64.9194C71.8132 65.7999 72.2877 65.8961 72.7977 65.474C74.5824 63.9967 72.0876 61.7983 67.5356 60.8365C64.4569 60.1862 62.0435 60.1375 59.3182 60.6703ZM93.9059 63.4345C93.3535 63.8675 92.2399 65.478 91.4312 67.0128C90.6226 68.5477 89.684 69.9094 89.3455 70.039C88.8101 70.2438 88.8222 70.3666 89.4399 70.9875C90.1174 71.6692 90.2062 71.5815 91.4425 69.0016C92.1539 67.5167 93.4964 65.4796 94.4252 64.4744C96.1639 62.5935 95.8298 61.925 93.9059 63.4345ZM26.2054 63.808C22.4737 65.0112 18.9423 67.1774 18.9423 68.2631C18.9423 70.1891 20.4651 70.3461 22.9386 68.6744L24.7156 67.4736L25.3084 68.3179C25.818 69.043 26.1553 69.1239 27.704 68.8921C30.9538 68.406 31.2415 68.307 31.9727 67.4181C32.6691 66.5718 32.7486 66.5633 34.0681 67.1907C35.3431 67.7971 35.5001 67.7943 36.2946 67.1529C37.4983 66.181 36.9903 65.2233 34.6419 64.0365C32.2785 62.8418 29.4395 62.7649 26.2054 63.808ZM38.9586 63.5798C38.3573 64.0257 37.6702 68.9782 36.4185 81.8798C36.2357 83.7679 35.9827 84.5144 35.4259 84.8118C34.0919 85.5237 34.752 87.5965 36.3132 87.5965C36.6792 87.5965 37.7779 88.1845 38.7544 88.9032C41.1766 90.6859 43.8325 90.7346 46.3948 89.0436C47.5613 88.2738 48.9138 87.7929 50.3576 87.6352C52.9271 87.3543 53.8689 86.4416 52.7459 85.3212C51.8106 84.3888 47.8603 84.5478 46.1765 85.586C43.1219 87.4685 42.7007 87.5925 41.4829 86.9643C39.2245 85.7997 39.1833 85.345 40.3551 74.6121C40.966 69.0149 41.2779 64.5802 41.0871 64.2031C40.621 63.284 39.7151 63.0188 38.9586 63.5798ZM95.8811 67.5762C93.9899 70.1042 93.9531 70.3617 95.2399 72.0833C95.8863 72.9477 96.4153 73.9248 96.4153 74.2543C96.4153 74.5835 96.5065 74.7626 96.6179 74.6515C96.9104 74.3594 97.3684 66.2684 97.092 66.2684C96.9645 66.2684 96.4194 66.8571 95.8811 67.5762ZM88.9505 73.1095C88.8133 73.3308 88.8827 73.5119 89.1046 73.5119C89.3265 73.5119 89.6203 73.3308 89.7575 73.1095C89.8947 72.8881 89.8253 72.707 89.6033 72.707C89.3814 72.707 89.0877 72.8881 88.9505 73.1095ZM86.4532 84.2291C86.314 84.5904 86.4003 85.2058 86.6452 85.5965C87.0068 86.1744 86.9434 86.3454 86.3055 86.5116C85.2515 86.7864 85.3004 88.2018 86.3902 88.9631C87.0157 89.4002 87.468 89.4589 88.0043 89.1728C88.9255 88.681 88.9481 88.0806 88.0809 87.1253C87.4591 86.44 87.4599 86.3893 88.0934 86.3893C89.1058 86.3893 89.3503 85.2625 88.5332 84.3623C87.6609 83.4009 86.7933 83.3454 86.4532 84.2291ZM64.427 86.8456C63.6176 87.2975 63.5074 88.8219 64.2317 89.5442C64.5069 89.8187 64.7664 90.9837 64.8079 92.133C64.8656 93.7209 65.09 94.3889 65.7437 94.9165C66.5031 95.5302 66.5551 95.7853 66.1883 97.1101C65.7073 98.8461 66.1451 99.6691 67.5493 99.6691C69.1759 99.6691 70.1548 96.0477 69.3889 92.8638C68.8494 90.6211 66.9945 87.4565 65.8663 86.8545C65.3861 86.5981 64.8761 86.5953 64.427 86.8456ZM24.6886 88.7925C22.4564 91.1821 22.3914 98.1741 24.5962 98.7487C25.0372 98.8638 25.3984 99.2771 25.3984 99.6666C25.3984 100.778 26.4705 101.492 27.2141 100.876C28.0296 100.201 27.9792 98.8727 27.1132 98.2171C26.4801 97.7379 26.4757 97.6811 27.0701 97.6699C27.9122 97.6534 28.371 96.5089 27.8069 95.8308C27.5055 95.469 27.5042 95.2356 27.8028 95.0517C28.0369 94.9072 28.3375 95.0722 28.4706 95.4183C28.6038 95.764 28.9657 96.0473 29.2748 96.0473C29.6787 96.0473 29.6162 96.2674 29.0517 96.8304C28.4384 97.4421 28.3391 97.865 28.5977 98.7652C29.6545 102.44 32.6901 105.192 37.236 106.596C40.8554 107.715 46.8838 107.78 50.8192 106.744C55.1064 105.616 59.1911 103.384 62.0076 100.63C65.9329 96.791 65.4979 95.5403 60.0397 94.9716C58.0436 94.7636 57.7506 94.6352 58.1574 94.1463C58.527 93.702 58.529 93.3913 58.1654 92.8111C57.9052 92.3954 57.7938 91.7901 57.9181 91.467C58.251 90.6014 57.3641 89.2062 56.4812 89.2062C55.489 89.2062 55.0774 90.533 55.7065 91.7048C55.9776 92.2102 56.2391 93.1225 56.2871 93.7322L56.3743 94.84H53.2265C51.4947 94.84 49.8044 94.9451 49.4695 95.073C49.02 95.2449 48.9147 95.0992 49.068 94.5149C49.1822 94.0795 49.0849 93.6062 48.8521 93.4626C48.5588 93.2819 48.568 92.8968 48.8816 92.2098C49.76 90.2875 47.8099 88.0999 46.8358 89.9148C46.3847 90.7551 46.7039 92.828 47.2841 92.828C47.5072 92.828 47.4515 93.1145 47.1606 93.4642C46.7434 93.9652 46.7337 94.2646 47.1146 94.8726C47.7199 95.8396 48.029 95.8071 38.0499 95.8292C31.0026 95.8445 30.355 95.7881 30.6774 95.1841C31.1096 94.374 30.1395 93.4308 29.2317 93.7781C28.7559 93.9604 28.6692 93.8042 28.8491 93.0891C28.9964 92.504 28.8471 91.9704 28.4432 91.636C27.9065 91.1921 27.6693 91.2287 26.964 91.8658L26.1234 92.6243L26.8546 91.0947C27.4034 89.9474 27.4784 89.3945 27.1552 88.8827C26.5205 87.8774 25.5755 87.8428 24.6886 88.7925ZM61.9874 89.7064C61.4419 90.1052 61.3233 90.5253 61.5266 91.3346C61.6779 91.9346 61.9669 92.4255 62.1686 92.4255C62.3708 92.4255 62.426 92.8634 62.2913 93.3986C62.1121 94.1113 62.2554 94.4831 62.8271 94.7881C64.2107 95.5266 65.2506 93.6678 63.8815 92.9036C63.432 92.6529 63.3682 92.4481 63.6797 92.2561C64.3338 91.8529 64.2414 91.036 63.4287 90.0372C62.8174 89.2859 62.6242 89.2412 61.9874 89.7064ZM49.7725 90.1664C49.6543 90.473 49.6147 91.5141 49.6841 92.4803C49.7971 94.0517 49.9166 94.2364 50.8192 94.2364C51.671 94.2364 51.8481 94.0243 51.9587 92.873C52.1572 90.8002 51.734 89.6086 50.799 89.6086C50.3523 89.6086 49.8903 89.8597 49.7725 90.1664ZM52.5724 90.2299C52.2569 91.0497 52.6931 93.6505 53.2366 94.1926C53.54 94.4952 53.8697 94.4891 54.3612 94.1724C55.1311 93.6763 55.1383 91.0384 54.3721 90.1177C53.7914 89.4199 52.8617 89.4778 52.5724 90.2299ZM58.6335 90.2078C58.4947 90.5684 58.5411 91.6223 58.7364 92.5499C59.0128 93.8602 59.2948 94.265 60.0014 94.3652C61.182 94.5326 61.5113 93.6396 61.0598 91.4964C60.7834 90.1861 60.5013 89.7812 59.7948 89.681C59.2383 89.6022 58.788 89.8066 58.6335 90.2078ZM85.6014 90.0915C84.8823 90.8086 85.0058 91.376 86.1054 92.4062C87.9236 94.1097 89.3104 92.1809 87.5382 90.4134C86.6037 89.4814 86.2688 89.4259 85.6014 90.0915ZM29.851 90.7893C28.8023 92.7438 30.1726 94.5181 31.4384 92.8444C32.0457 92.0416 32.0643 92.0561 32.0602 93.3278C32.057 94.3539 32.2402 94.665 32.9015 94.7592C33.5778 94.8557 33.8905 94.5052 34.4627 93.0107C35.1337 91.2589 35.1361 91.1 34.4994 90.4758C33.8667 89.8557 33.7711 89.869 33.1093 90.673C32.4198 91.5108 32.385 91.5137 31.9214 90.7736C31.3069 89.7921 30.3825 89.7994 29.851 90.7893ZM38.5668 91.0203C38.1899 91.3961 37.863 91.4726 37.7073 91.2215C37.5689 90.9982 37.1004 90.8159 36.6662 90.8159C35.7434 90.8159 34.4304 93.2111 34.8109 94.1998C35.1349 95.0429 36.6513 95.0231 36.979 94.172C37.1969 93.6054 37.2868 93.64 37.5689 94.4014C37.8021 95.0292 38.1709 95.2602 38.7963 95.17C40.4572 94.9306 41.1262 90.4134 39.5005 90.4134C39.3217 90.4134 38.9013 90.6863 38.5668 91.0203ZM41.1629 91.7491C40.7913 92.7237 40.6061 93.8835 40.6852 94.7394C40.7106 95.0163 41.1786 95.2425 41.7246 95.2425C42.5461 95.2425 42.7951 94.9567 43.1639 93.5905C43.4092 92.6823 43.5129 91.6863 43.3939 91.3772C43.0432 90.4662 41.5575 90.7136 41.1629 91.7491ZM44.1186 91.3857C43.6441 92.6187 44.1412 94.2336 45.0345 94.3604C46.0526 94.5052 46.5925 93.3229 46.2075 91.7929C45.9344 90.7076 44.4878 90.4255 44.1186 91.3857ZM83.3288 96.3222C82.9919 97.1978 84.4183 98.661 85.2854 98.329C86.04 98.0405 86.1263 96.8123 85.44 96.1278C84.7419 95.4316 83.6323 95.5342 83.3288 96.3222ZM80.4167 97.4666C80.1763 98.092 81.735 100.651 83.1154 101.897C84.0217 102.715 85.1172 102.415 85.1172 101.349C85.1172 100.931 84.4732 99.7487 83.6863 98.721C82.2297 96.8179 80.8675 96.2956 80.4167 97.4666ZM51.021 98.0566C43.8898 99.3769 42.5506 99.4268 36.3939 98.6006C34.7209 98.3761 34.679 98.3986 34.6846 99.5226C34.6951 101.779 35.1019 102.395 37.1617 103.279C41.4216 105.107 48.7206 104.672 53.9778 102.279C58.5197 100.212 60.1075 98.4787 57.9814 97.9105C56.8068 97.5966 53.0829 97.6747 51.021 98.0566ZM77.9663 98.5109C77.7173 98.7592 77.6095 99.2119 77.727 99.517C77.8674 99.8815 77.645 100.071 77.0777 100.071C75.9088 100.071 75.6065 101.07 76.4067 102.288C77.112 103.361 78.5542 103.635 78.8911 102.759C79.0202 102.424 79.5367 102.292 80.2904 102.402C81.3153 102.552 81.4856 102.447 81.4856 101.664C81.4856 100.612 79.6711 98.0594 78.923 98.0594C78.6457 98.0594 78.2152 98.2626 77.9663 98.5109ZM73.1972 100.652C72.4249 101.229 72.4431 101.311 73.9836 104.26C75.6546 107.459 76.4204 108.113 77.3771 107.158C77.8948 106.642 77.8069 106.258 76.6585 104.025C75.9386 102.625 75.0432 101.161 74.6688 100.77C74.0623 100.139 73.9009 100.126 73.1972 100.652ZM81.2835 102.889C80.8283 103.624 81.434 105.247 82.3443 105.733C83.0185 106.093 83.326 106.055 83.834 105.548C84.4187 104.965 84.4022 104.813 83.6432 103.798C82.7333 102.581 81.7168 102.19 81.2835 102.889ZM70.7124 103.555C70.3509 104.496 71.4763 106.309 72.4221 106.309C73.3635 106.309 73.6806 104.94 73.0233 103.714C72.4907 102.722 71.0707 102.624 70.7124 103.555ZM78.6514 104.309C78.2241 104.822 78.3887 105.284 79.646 107.105C81.6289 109.977 82.1203 110.373 82.8979 109.73C83.8013 108.982 83.6609 108.471 81.8669 105.972C80.167 103.604 79.5173 103.268 78.6514 104.309ZM68.6993 106.763C68.5529 107.144 69.1061 108.7 70.0236 110.485C71.1926 112.76 71.8083 113.552 72.4067 113.552C73.7125 113.552 73.5874 112.062 72.0214 108.961C70.9513 106.842 70.3715 106.108 69.7662 106.108C69.3183 106.108 68.8381 106.403 68.6993 106.763ZM65.6024 107.115C65.2017 108.156 66.3929 110.534 67.3153 110.534C68.3757 110.534 68.7546 109.211 68.0905 107.824C67.4836 106.558 65.9817 106.13 65.6024 107.115ZM73.1496 107.94C72.8623 108.687 74.0482 111.46 75.0376 112.352C75.678 112.93 75.7978 112.93 76.3789 112.351C77.0701 111.661 76.8623 110.703 75.5347 108.461C74.7971 107.216 73.5345 106.94 73.1496 107.94ZM77.1927 107.919C76.8998 108.68 77.2488 110.106 77.9683 111.087C78.358 111.618 78.7793 111.759 79.3979 111.563C80.4865 111.218 80.5095 110.319 79.4725 108.623C78.6256 107.237 77.5793 106.915 77.1927 107.919ZM63.8674 110.359C63.4909 111.338 64.4129 112.949 65.3494 112.949C66.4078 112.949 66.7875 111.965 66.2142 110.71C65.7073 109.6 64.2434 109.381 63.8674 110.359ZM48.0495 111.404C47.7735 112.148 47.69 112.177 47.4701 111.605C47.1433 110.756 45.7379 110.734 45.415 111.573C45.0232 112.591 45.1322 115.748 45.5878 116.597C46.5336 118.359 47.9741 117.051 47.7945 114.592C47.7364 113.799 47.7687 113.454 47.8659 113.825C48.4567 116.076 50.4157 115.427 50.4157 112.98C50.4157 110.701 48.7274 109.577 48.0495 111.404ZM36.3051 111.911C36.0888 112.478 36.0174 113.215 36.1457 113.549C36.4274 114.281 38.1608 114.36 38.4469 113.653C38.5587 113.377 38.6648 114.172 38.6822 115.421C38.7064 117.155 38.8738 117.753 39.3911 117.951C40.5468 118.393 41.0673 117.304 41.2049 114.156C41.3296 111.3 41.2888 111.131 40.4431 111.011C39.7531 110.913 39.4831 111.142 39.2576 112.017L38.9658 113.15L38.7225 112.144C38.3739 110.702 36.8228 110.552 36.3051 111.911ZM42.438 111.408C41.725 112.119 41.8037 115.553 42.5473 116.168C43.684 117.109 44.4156 115.937 44.2804 113.392C44.1569 111.064 43.4964 110.352 42.438 111.408ZM67.4993 111.566C67.3391 111.982 67.7576 113.217 68.5654 114.713C70.206 117.749 70.7548 118.358 71.5683 118.047C72.5484 117.672 72.2986 116.201 70.8044 113.552C69.3913 111.047 68.0166 110.221 67.4993 111.566ZM24.8238 113.22C23.6096 115.002 23.5495 115.473 24.4412 116.211C25.0126 116.684 25.2503 116.573 26.2723 115.355C27.0233 114.46 27.405 113.594 27.3303 112.952C27.1475 111.377 25.9959 111.499 24.8238 113.22ZM62.0915 112.779C61.6497 113.309 61.7243 113.882 62.5463 116.266C63.8613 120.081 64.8503 121.062 65.7299 119.423C66.0427 118.84 65.8909 117.985 65.1045 115.902C63.6596 112.072 63.133 111.527 62.0915 112.779ZM65.8946 114.358C65.3462 115.783 67.2624 119.388 68.5674 119.388C69.6677 119.388 69.6395 117.929 68.4931 115.575C67.5873 113.716 66.3622 113.142 65.8946 114.358ZM26.5709 115.819C25.6772 117.07 25.8039 118.114 26.8933 118.476C28.0631 118.865 29.6218 115.582 28.58 114.924C27.7221 114.382 27.5385 114.464 26.5709 115.819ZM36.1586 114.827C35.6522 115.332 35.8887 117.289 36.483 117.517C37.1347 117.766 38.3105 116.802 38.3105 116.019C38.3105 114.986 36.8244 114.163 36.1586 114.827ZM84.062 116.345C83.9393 116.664 84.0116 117.231 84.2226 117.607C84.5402 118.173 84.6378 118.074 84.7915 117.028C84.9796 115.752 84.4728 115.277 84.062 116.345ZM42.4989 117.557C42.191 118.358 42.647 118.985 43.5367 118.985C44.3111 118.985 44.9325 117.968 44.5423 117.339C44.1836 116.76 42.7467 116.913 42.4989 117.557ZM60.2455 117.577C59.6975 119.001 61.851 124.217 62.9869 124.217C63.4102 124.217 63.8585 123.952 63.9832 123.628C64.2386 122.964 63.1302 119.257 62.2642 117.878C61.6126 116.841 60.5873 116.689 60.2455 117.577ZM82.1349 119.854C82.5065 120.664 82.6998 121.615 82.5642 121.967C82.1736 122.982 80.7694 122.72 80.0653 121.5L79.4261 120.394L79.7126 121.601C80.2767 123.978 80.1387 124.811 79.1582 124.95C78.4626 125.048 78.1204 124.788 77.7318 123.866C77.0931 122.352 75.9992 122.713 76.5701 124.25C76.7686 124.785 76.8514 125.449 76.7537 125.726C76.51 126.416 75.2365 126.359 74.6297 125.629C73.9235 124.781 73.3215 125.301 73.8561 126.298C74.0999 126.752 74.2173 127.551 74.1176 128.073C74.0175 128.594 74.0704 128.938 74.235 128.837C74.7346 128.529 75.5404 129.796 75.2781 130.477C74.9194 131.41 73.2186 131.063 73.1948 130.052C73.1843 129.609 72.6848 128.722 72.0852 128.081C70.7693 126.675 70.7588 126.75 71.866 129.636C72.6565 131.695 72.6787 131.965 72.1065 132.536C71.2689 133.371 70.662 132.929 69.715 130.795C68.8204 128.778 67.9266 128.769 68.7716 130.786C69.0968 131.562 69.1848 132.332 68.9854 132.654C68.7615 133.015 68.9309 133.431 69.4842 133.877C70.5615 134.747 70.1705 135.997 68.8777 135.814C68.2111 135.72 67.9682 135.417 67.9682 134.679C67.9682 134.126 67.7313 133.523 67.4416 133.339C67.1519 133.155 66.7379 132.541 66.5224 131.976C65.8651 130.252 65.6513 131.261 66.2803 133.117C66.9836 135.192 66.7928 135.887 65.5201 135.887C64.7623 135.887 64.4734 135.562 64.0873 134.277C63.8214 133.392 63.4356 132.667 63.2302 132.667C63.0252 132.667 62.9514 132.894 63.0664 133.17C64.3665 136.298 64.3447 137.899 63.0018 137.899C62.2069 137.899 61.3103 136.395 61.3103 135.063C61.3103 134.617 61.0364 134.277 60.676 134.277C60.1426 134.277 60.0857 134.629 60.3185 136.486C60.5481 138.32 60.484 138.736 59.9388 138.945C59.5777 139.083 59.0253 138.983 58.7106 138.723C58.2558 138.346 58.0472 138.419 57.6929 139.08C57.4476 139.537 56.9872 139.911 56.67 139.911C55.8497 139.911 55.1452 138.4 55.4329 137.258C55.7492 136.001 57.1692 135.961 57.6663 137.195C58.0859 138.236 58.1876 137.729 57.8281 136.39C57.4238 134.885 55.1016 135.271 54.7958 136.893C54.6077 137.892 52.9344 138.219 52.5902 137.323C52.1483 136.175 51.6746 136.666 51.5483 138.402C51.4382 139.925 51.3139 140.112 50.4157 140.112C49.5724 140.112 49.3864 139.897 49.2806 138.804C49.1208 137.153 48.3982 137.081 48.3982 138.716C48.3982 140.315 47.318 140.763 46.3471 139.567C45.8976 139.013 45.5325 138.847 45.3642 139.119C45.2165 139.356 44.8856 139.475 44.6286 139.381C44.3716 139.288 43.87 139.463 43.5137 139.772C42.6071 140.557 41.5386 140.031 41.5386 138.799C41.5386 137.832 41.497 137.811 40.8006 138.44C39.8773 139.273 39.3613 139.28 38.685 138.468C38.3311 138.042 37.7819 137.904 37.0375 138.052C36.4233 138.174 35.8245 138.12 35.7071 137.93C35.5897 137.741 34.9017 137.502 34.1782 137.401C33.4551 137.3 32.5456 137.079 32.1571 136.911C31.576 136.659 31.4509 136.813 31.4509 137.779C31.4509 138.424 31.1955 139.3 30.8832 139.726C30.3732 140.422 30.1391 140.453 28.563 140.032C27.5995 139.774 26.4931 139.441 26.1045 139.292C24.9924 138.864 25.2039 140.908 26.5697 143.787C29.2849 149.511 37.2336 154.684 46.6356 156.844C51.7356 158.016 60.693 158.299 65.878 157.45C77.4506 155.557 85.5832 150 87.1771 142.897C87.6157 140.942 87.5673 140.48 86.6214 137.616C85.3036 133.625 84.7137 129.349 84.7137 123.782C84.7137 119.452 84.7003 119.389 83.8889 119.887C83.1698 120.328 82.9608 120.264 82.2616 119.388L81.4594 118.382L82.1349 119.854ZM65.395 120.736C65.0601 121.139 65.0613 121.637 65.3987 122.648C65.9866 124.41 66.7339 125.194 67.5332 124.888C68.3418 124.578 68.3515 122.918 67.5542 121.38C66.8908 120.1 66.1165 119.869 65.395 120.736ZM58.234 121.586C57.9604 122.296 59.1766 126.206 59.9142 126.988C60.2084 127.299 60.7446 127.429 61.1296 127.283C62.533 126.745 60.8608 120.997 59.3009 120.997C58.8385 120.997 58.3587 121.262 58.234 121.586ZM28.5255 122.119C27.7298 122.282 27.5991 122.826 28.258 123.232C28.7571 123.54 29.5997 122.858 29.3781 122.326C29.2974 122.132 28.9141 122.039 28.5255 122.119ZM56.4727 124.01C55.8804 124.722 56.208 125.826 57.0114 125.826C57.3241 125.826 57.8059 125.555 58.0823 125.223C58.483 124.741 58.483 124.497 58.0823 124.015C57.4508 123.256 57.1006 123.255 56.4727 124.01ZM63.3581 125.186C62.7731 125.889 63.1047 127.264 63.9368 127.583C64.858 127.935 65.7699 126.758 65.3833 125.714C64.979 124.622 64.0332 124.375 63.3581 125.186ZM53.7874 126.034C53.4279 126.968 54.3701 130.892 55.0984 131.495C55.585 131.898 55.8235 131.873 56.3311 131.367C56.8871 130.812 56.8964 130.444 56.4086 128.182C55.9465 126.04 55.7101 125.604 54.9503 125.496C54.391 125.417 53.9456 125.623 53.7874 126.034ZM45.0204 126.842C44.6581 127.784 45.2117 130.994 45.8246 131.501C46.808 132.315 47.5912 131.601 47.5912 129.889C47.5912 127.687 46.9693 126.229 46.0304 126.229C45.6047 126.229 45.1503 126.505 45.0204 126.842ZM76.3409 126.497C75.5989 126.793 75.7268 128.515 76.5136 128.816C77.5018 129.194 78.5679 128.016 78.0203 127.151C77.5373 126.387 77.0709 126.206 76.3409 126.497ZM53.1196 138.556C52.6426 139.031 52.8053 140.215 53.3778 140.434C54.1909 140.745 54.9527 140.114 54.7885 139.264C54.6388 138.489 53.6203 138.057 53.1196 138.556Z" fill="black"/>
</svg>
