<svg width="130" height="159" viewBox="0 0 130 159" fill="none" xmlns="http://www.w3.org/2000/svg">
<path fill-rule="evenodd" clip-rule="evenodd" d="M60.7913 0.552985C50.2291 2.78464 38.513 12.0929 30.9471 24.265C24.7294 34.2684 22.3508 41.8572 19.7803 59.8931C19.1482 64.3293 18.3046 69.4437 17.9056 71.2585C17.5066 73.0733 16.7002 76.8917 16.1136 79.7441C15.5267 82.5961 14.386 87.2156 13.5781 90.0097C8.59778 107.234 8.17525 111.964 10.5858 123.503C11.6916 128.796 11.7618 129.563 11.6114 134.685C11.472 139.444 11.3165 140.574 10.4563 143.077C8.35912 149.181 5.70037 152.421 1.89905 153.505C-0.814857 154.279 -0.609657 155.634 2.44846 157.131C4.28789 158.032 4.92959 158.147 8.0208 158.135C12.4598 158.117 14.8835 157.232 17.6511 154.62L19.6046 152.777L22.7304 152.702C25.3531 152.638 26.2408 152.446 28.2464 151.507C30.982 150.225 34.3388 147.326 35.8524 144.937C36.422 144.038 36.9887 143.343 37.1115 143.393C37.2343 143.443 38.196 144.474 39.2481 145.684C43.1457 150.166 47.8425 153.736 52.9982 156.136C57.5026 158.232 59.7723 158.74 65.5719 158.948C72.4585 159.195 74.9982 158.661 83.683 155.141C83.9614 155.028 84.1427 155.249 84.1427 155.701C84.1427 157.184 85.1687 157.703 87.5689 157.432C90.9051 157.056 93.3321 155.977 95.9423 153.71C100.588 149.676 102.391 148.697 109.438 146.383C112.211 145.472 115.585 144.076 116.934 143.281C123.347 139.504 125.443 133.392 122.6 126.76C122.4 126.292 122.685 126.081 123.948 125.765C127.05 124.986 130.404 121.785 129.96 120.026C129.752 119.196 129.597 119.15 127.258 119.216C123.61 119.32 121.654 118.278 120.287 115.503C119.336 113.571 119.264 113.116 119.299 109.204C119.332 105.449 119.526 104.247 121.073 98.2056C123.265 89.65 123.627 84.6741 122.463 79.141C121.484 74.49 120.641 72.3837 117.759 67.395C113.835 60.6043 112.852 57.3993 111.913 48.3443C111.194 41.4154 110.653 38.6019 109.128 33.8548C105.65 23.0261 100.205 13.3582 94.375 7.65822C88.5247 1.9381 82.2419 -0.343052 76.1797 1.05233C74.9827 1.32767 74.0339 1.24628 71.7999 0.676904C68.4377 -0.180637 64.4749 -0.224998 60.7913 0.552985ZM62.6756 20.9389C60.2717 28.5651 61.3573 37.9222 65.2461 43.0953C66.3048 44.5035 66.3563 45.2613 65.4274 45.757C64.3937 46.3084 63.161 45.1653 61.6128 42.2187C59.7672 38.7068 59.1291 36.0113 58.8971 30.7462C58.7459 27.3175 58.8419 25.477 59.2777 23.4386C59.598 21.9398 59.8006 20.6541 59.7278 20.5815C59.4469 20.3014 57.9479 23.285 57.0915 25.8286C55.1134 31.7035 56.3516 39.2197 60.1224 44.2282C61.1274 45.5638 61.1263 46.4137 60.1187 47.0219C59.5513 47.3643 59.2457 47.199 58.1645 45.9649C55.3234 42.721 53.5016 37.2751 53.4718 31.9377C53.4615 30.0723 53.4104 28.5464 53.3582 28.5464C52.7992 28.5464 48.9233 38.1667 47.7513 42.4629C47.3413 43.9668 46.7661 45.4359 46.4738 45.7273C45.7938 46.4056 43.8842 46.3546 42.7732 45.6291C41.9322 45.0795 41.8855 45.1118 40.8202 46.9801C40.2196 48.033 39.782 48.9522 39.8475 49.0233C39.9129 49.0941 40.8194 48.8697 41.862 48.5247C44.0724 47.7925 48.372 47.673 50.531 48.2831C52.483 48.8352 54.4982 50.1983 54.6692 51.0826C55.002 52.8062 52.4036 53.1838 48.2882 52.0106C44.6421 50.9708 42.8835 51.0526 38.8189 52.4494L37.4399 52.9231L37.437 55.1251C37.4333 58.0742 36.8795 61.4039 35.7292 65.3925C34.8988 68.2705 34.7859 69.3011 34.8444 73.4583C34.9235 79.1021 35.7203 86.4123 36.4948 88.6007C36.7986 89.459 37.6624 91.1051 38.414 92.2585C40.06 94.7842 49.4046 104.156 51.927 105.811C55.6323 108.242 60.859 109.473 65.5925 109.031C72.7082 108.366 85.6199 99.8624 91.6012 91.9015C93.0718 89.944 94.5986 85.6695 95.1767 81.8907C95.7504 78.1401 95.8269 77.977 96.9544 78.095C97.4927 78.1515 98.1252 78.0792 98.3595 77.9348C98.9155 77.5924 99.8448 77.9583 100.099 78.6193C100.43 79.4783 99.9316 80.2409 99.0398 80.2409C98.1852 80.2409 97.5019 81.5116 98.1436 81.9072C98.5945 82.1851 99.8694 81.4559 100.271 80.6907C100.698 79.8746 101.203 73.0711 100.875 72.5421C100.695 72.251 100.488 72.2535 100.127 72.552C99.8525 72.7789 99.2468 72.9105 98.7806 72.8449C97.9756 72.7309 97.9197 72.5289 97.6707 68.8109C97.246 62.4675 96.8095 61.199 93.4539 56.5513C91.0242 53.186 90.4457 52.5792 90.1339 53.0683C89.8029 53.5867 89.6014 53.5995 88.5122 53.1713C86.3135 52.3065 83.6275 51.6528 82.2533 51.6484C81.5174 51.6458 79.4879 52.0564 77.7429 52.5605C73.7096 53.7257 72.5917 53.726 71.4248 52.5631C70.0484 51.1908 70.6754 50.3769 74.2138 48.943C74.5172 48.8202 74.2689 48.7967 73.6622 48.8913C71.1148 49.2876 67.4411 45.0502 65.6513 39.6505C64.0918 34.9463 63.4324 30.4577 63.4148 24.4219C63.4063 21.4478 63.3728 19.0141 63.3405 19.0141C63.3085 19.0141 63.0091 19.8801 62.6756 20.9389ZM75.7123 35.879C75.6902 37.256 76.6747 41.6284 77.5955 44.2421C78.5542 46.9632 78.3552 47.5304 76.2132 48.1804C74.8717 48.5874 74.9676 48.6057 77.5234 48.4312C79.0403 48.3278 80.3263 48.2072 80.3807 48.1639C80.4355 48.1203 79.411 45.1323 78.1037 41.5236C76.7964 37.9149 75.7204 35.3749 75.7123 35.879ZM86.5062 44.1281C86.3451 44.5314 85.728 45.6533 85.1352 46.6212C84.5421 47.5891 84.1177 48.4224 84.1916 48.4734C84.2659 48.524 85.2724 48.8525 86.4286 49.2029C87.5847 49.5534 88.6288 49.9989 88.7486 50.1921C88.8685 50.3857 89.1267 50.5441 89.3223 50.5441C89.5176 50.5441 89.4017 50.0125 89.0649 49.3624C88.7277 48.7128 88.0801 47.104 87.6256 45.7878C86.9537 43.8432 86.7441 43.5323 86.5062 44.1281ZM46.2277 53.8195C44.706 54.1158 41.9833 55.62 40.9919 56.7126C40.2663 57.5118 40.4112 58.7686 41.2666 59.096C41.5358 59.1987 42.5555 58.7166 43.5326 58.0236C44.5097 57.3311 45.4636 56.8156 45.6526 56.8787C45.8413 56.9414 46.1807 57.5628 46.4065 58.2594C46.8143 59.5173 46.8334 59.5264 49.0126 59.5264C50.9098 59.5264 51.2636 59.4165 51.6129 58.7173L52.0178 57.9081L52.8242 58.7122C53.4626 59.3486 53.7638 59.433 54.2691 59.1173C54.6203 58.8977 54.9579 58.3844 55.0189 57.976C55.177 56.9256 52.4374 54.6906 50.1681 54.0186C48.1959 53.4349 48.2014 53.4349 46.2277 53.8195ZM75.588 54.845C73.4121 55.6508 71.2719 57.3212 71.2719 58.2139C71.2719 58.5838 71.5241 59.0953 71.8323 59.3505C72.2964 59.7343 72.6259 59.6489 73.7453 58.8551L75.0974 57.8957L75.5339 58.9314C76.0458 60.1453 76.6202 60.4294 78.0982 60.1996C80.5955 59.8117 80.7735 59.7149 81.0169 58.6102C81.3207 57.2314 81.5965 57.235 83.2002 58.6388C84.5719 59.8395 85.4702 59.9195 86.1156 58.898C86.4341 58.3936 86.2973 58.0442 85.4195 57.1232C82.9652 54.5476 78.9208 53.6105 75.588 54.845ZM57.5074 56.9868C57.0341 57.4587 56.9378 58.4434 56.9775 62.3946C57.0235 66.929 56.9646 67.3609 56.0225 69.4254C54.7707 72.1681 54.7582 73.5602 55.9666 75.6162C57.667 78.5089 60.5137 80.1357 61.1197 78.561C61.4378 77.7342 61.5132 77.8699 59.5042 75.658C58.4929 74.5446 57.6655 73.3263 57.6655 72.9501C57.6655 72.574 58.1028 71.297 58.6375 70.1124C59.4847 68.2353 59.6326 67.3367 59.7885 63.1091C59.9396 59.0117 59.8731 58.1164 59.3597 57.3347C58.6529 56.2598 58.3028 56.1938 57.5074 56.9868ZM64.9045 75.1228C63.0794 76.2732 62.8061 77.0615 63.9774 77.7966C64.4297 78.0807 64.9784 78.0059 66.0809 77.5102C68.106 76.5999 68.9694 75.6206 68.4609 74.8115C67.8438 73.83 66.8119 73.9202 64.9045 75.1228ZM79.8523 81.1846C79.7302 81.5021 79.8409 82.3985 80.0983 83.1765C80.3557 83.9541 80.4826 85.333 80.38 86.24C80.1972 87.8568 80.5392 88.6733 81.399 88.6733C82.0433 88.6733 82.6725 86.9766 82.6637 85.2648C82.6486 82.3541 80.5657 79.3313 79.8523 81.1846ZM44.0489 81.5362C43.3322 82.3974 43.1678 85.4275 43.793 86.258C44.7038 87.4686 45.5294 86.7511 45.5357 84.7434C45.539 83.7796 45.6949 82.7486 45.8824 82.4531C46.0987 82.1121 46.0803 81.7429 45.8317 81.4449C45.308 80.8154 44.6196 80.8506 44.0489 81.5362ZM48.2621 83.4357C47.3335 84.3614 47.6936 85.3737 49.5995 87.1958C51.6052 89.1133 55.7286 91.3383 58.401 91.9454C62.4094 92.8565 67.8346 92.2542 71.484 90.4929C73.4323 89.5525 77.3763 86.0468 77.7279 84.9425C78.2438 83.322 77.7771 83.2634 62.8797 83.083C50.9918 82.9385 48.7052 82.9939 48.2621 83.4357ZM53.2527 86.2308C53.2527 86.9018 53.6763 87.2948 55.2054 88.0409C58.1568 89.4817 60.2382 89.8769 64.0098 89.7116C66.859 89.5869 67.8081 89.3772 69.8619 88.4185C71.2101 87.7894 72.4843 86.9549 72.6939 86.5645C73.062 85.8789 72.8568 85.8462 66.7494 85.6153C63.2702 85.4836 58.8103 85.3755 56.8381 85.3748C53.3247 85.3737 53.2527 85.3909 53.2527 86.2308ZM89.44 98.261C87.9683 99.917 81.8705 104.699 79.1006 106.368C77.5094 107.327 74.505 108.873 72.4244 109.803L68.6411 111.495L60.6711 111.839C56.2876 112.029 52.3583 112.297 51.9391 112.436C51.2021 112.679 51.2717 112.989 54.0407 121.853C55.6158 126.894 56.869 131.431 56.8252 131.935C56.7653 132.629 56.509 132.879 55.7731 132.964C54.7398 133.084 54.5445 132.733 53.1604 128.288C52.6911 126.781 52.5576 126.657 51.3897 126.639C50.3085 126.622 50.1269 126.493 50.1269 125.743C50.1269 125.009 50.5104 124.587 51.7188 123.993C51.8891 123.909 50.5961 119.719 50.2857 119.349C49.9599 118.96 47.9546 124.175 47.0191 127.844C45.9203 132.153 45.4636 136.618 45.8913 138.866C46.2965 140.996 46.5039 141.468 47.0357 141.468C47.253 141.468 47.2328 141.166 46.9846 140.704C46.6602 140.099 46.7007 139.801 47.1795 139.274C47.5781 138.835 47.6509 138.525 47.3927 138.366C46.8058 138.004 46.9213 136.444 47.5527 136.202C48.8769 135.695 49.9835 137.109 49.0604 138.129C48.6055 138.632 48.6019 138.818 49.0376 139.41C49.3778 139.873 49.4359 140.309 49.2123 140.726C48.8269 141.443 49.0913 142.751 49.8632 143.944C50.3001 144.62 50.3119 144.874 49.9268 145.337C49.2767 146.118 47.9458 145.861 47.812 144.928C47.7145 144.247 47.4972 144.187 45.6055 144.311C44.0088 144.416 43.1619 144.269 42.0616 143.697C41.2666 143.284 40.5576 143.003 40.4866 143.074C40.1152 143.444 48.037 150.323 50.6086 151.863C61.9478 158.654 74.9011 157.913 87.6708 149.742L90.2795 148.073L90.8885 145.31C91.2235 143.79 91.4975 141.342 91.4975 139.87C91.4975 137.378 91.4434 137.195 90.7183 137.222C89.7908 137.257 89.0811 136.309 89.4047 135.468C89.5319 135.138 89.9717 134.868 90.3829 134.868C91.3445 134.868 91.3474 134.943 90.0265 126.129C88.3559 114.982 88.5453 109.063 90.7881 102.344C91.4537 100.349 91.4916 99.891 91.083 98.7643C90.5351 97.2546 90.377 97.2062 89.44 98.261ZM48.8288 127.732C48.161 128.535 48.806 129.552 49.9831 129.552C50.7149 129.552 50.8624 129.368 50.8624 128.452C50.8624 127.616 50.6781 127.326 50.0945 127.243C49.6724 127.183 49.1027 127.403 48.8288 127.732ZM47.7108 130.683C47.3615 131.103 47.3339 131.433 47.6115 131.874C48.5419 133.354 50.7756 132.387 49.9555 130.859C49.4723 129.958 48.3849 129.873 47.7108 130.683ZM47.3858 133.565C46.3925 134.758 48.0363 136.193 49.138 135.095C49.6062 134.628 49.6543 134.341 49.3458 133.853C48.8089 133.003 47.9576 132.878 47.3858 133.565ZM87.5936 137.597C87.2019 138.614 87.62 139.451 88.5206 139.451C89.6805 139.451 90.3376 138.433 89.6845 137.649C89.0807 136.924 87.8642 136.893 87.5936 137.597ZM85.2901 139.919C84.5355 141.324 86.4087 142.538 87.4329 141.308C87.7583 140.917 87.7664 140.586 87.4649 140.025C86.9666 139.096 85.763 139.038 85.2901 139.919ZM83.1807 141.996C82.7891 143.014 83.2072 143.851 84.1078 143.851C85.2676 143.851 85.9248 142.833 85.2717 142.048C84.6678 141.323 83.4514 141.293 83.1807 141.996ZM81.2155 143.833C80.5503 144.632 80.9084 145.667 81.8984 145.807C83.259 146 83.811 144.856 82.8295 143.877C82.1128 143.163 81.7811 143.153 81.2155 143.833ZM78.6141 145.891C78.3126 146.452 78.3207 146.783 78.6461 147.174C79.6736 148.408 81.5667 147.161 80.7838 145.766C80.2987 144.902 79.108 144.97 78.6141 145.891ZM49.59 146.399C48.8975 147.231 49.2752 148.25 50.2758 148.25C51.4357 148.25 52.0928 147.232 51.4397 146.448C50.8374 145.724 50.1666 145.707 49.59 146.399ZM76.1661 147.933C75.6244 149.341 77.5782 150.375 78.3814 149.106C78.6619 148.663 78.6351 148.336 78.2846 147.914C77.6554 147.159 76.4603 147.169 76.1661 147.933ZM51.5276 149.033C51.2235 149.824 51.8769 150.817 52.7011 150.817C53.0614 150.817 53.5248 150.55 53.7307 150.225C54.2926 149.337 53.7734 148.434 52.7011 148.434C52.1678 148.434 51.6585 148.694 51.5276 149.033ZM73.835 149.73C73.1672 150.532 73.8122 151.55 74.9893 151.55C75.7211 151.55 75.8686 151.365 75.8686 150.45C75.8686 149.614 75.6843 149.324 75.1007 149.241C74.6786 149.181 74.109 149.401 73.835 149.73ZM54.1018 150.5C53.5601 151.907 55.5139 152.942 56.317 151.672C56.5976 151.229 56.5708 150.902 56.2203 150.481C55.5911 149.725 54.396 149.736 54.1018 150.5ZM71.2461 151.214C70.6702 151.906 71.1722 152.945 72.1776 153.142C73.1135 153.326 73.6063 152.658 73.3341 151.577C73.0624 150.497 71.997 150.312 71.2461 151.214ZM56.5513 151.93C55.8835 152.732 56.5285 153.75 57.7056 153.75C58.4374 153.75 58.5849 153.565 58.5849 152.65C58.5849 151.814 58.4006 151.523 57.817 151.441C57.3949 151.38 56.8252 151.6 56.5513 151.93ZM68.3833 152.586C67.5573 153.578 68.7326 154.911 70.0046 154.425C70.8747 154.092 70.5423 152.31 69.5847 152.174C69.1625 152.114 68.6219 152.299 68.3833 152.586ZM59.5778 152.906C58.4797 154.001 59.6976 155.714 61.0575 154.989C62.1416 154.41 61.6529 152.466 60.4236 152.466C60.2011 152.466 59.8205 152.664 59.5778 152.906ZM65.1979 153.586C64.8471 154.689 65.8834 155.73 66.774 155.17C67.1241 154.95 67.4106 154.375 67.4106 153.893C67.4106 152.665 65.5723 152.41 65.1979 153.586ZM62.256 153.952C62.0953 154.458 62.2027 154.947 62.5513 155.295C63.4232 156.164 64.7221 155.566 64.582 154.36C64.4297 153.045 62.6443 152.733 62.256 153.952Z" fill="black"/>
</svg>
