<svg width="140" height="180" viewBox="0 0 140 180" fill="none" xmlns="http://www.w3.org/2000/svg">
<path fill-rule="evenodd" clip-rule="evenodd" d="M60.0347 0.158104C59.1181 0.318841 57.9841 0.651488 57.5147 0.897639C56.6701 1.34057 53.5762 3.69756 51.2067 5.70353C50.1058 6.63551 49.8077 6.7166 48.2417 6.50829C38.8168 5.257 28.8889 13.4845 20.9804 29.1008C17.6842 35.6096 15.6303 40.8591 13.2802 48.781C9.75865 60.651 9.13044 65.7373 9.45085 79.7859C9.57109 85.0517 9.77017 91.2253 9.89293 93.5048C10.2717 100.516 9.07824 104.967 3.70841 116.57C1.51923 121.3 0.392052 125.459 0.0759684 129.97C-0.223915 134.247 0.258851 136.38 3.44525 144.861C6.75045 153.657 6.9481 155.274 5.08903 158.292C4.44606 159.335 3.9201 160.402 3.9201 160.661C3.9201 161.35 4.90003 162.207 7.34014 163.652C12.3568 166.623 12.917 166.833 15.8002 166.817C18.0514 166.804 18.9413 166.605 21.1535 165.62C24.0958 164.31 24.9177 164.315 27.9349 165.659C30.5313 166.815 33.506 166.747 35.7571 165.48L37.5341 164.479L42.5972 167.876C45.3822 169.744 50.5374 173.236 54.0536 175.636C57.5701 178.037 60.7036 180 61.0175 180C61.3314 180 67.0408 177.089 73.7048 173.532C80.3688 169.974 86.0915 166.962 86.422 166.837C86.9677 166.631 86.9595 166.814 86.332 168.832C85.4413 171.698 85.4427 173.021 86.3374 173.5C87.3216 174.028 87.3263 174.026 88.8056 172.458C90.7708 170.375 95.4512 167.151 99.1128 165.357C100.879 164.492 106.306 162.487 111.173 160.901C124.357 156.604 128.56 153.948 131.358 148.147C132.135 146.538 133.003 144.33 133.289 143.24C133.574 142.149 134.475 140.122 135.291 138.735C138.607 133.093 140.003 127.732 140 120.64C139.995 106.768 135.853 94.6764 124.779 76.2058C118.524 65.7734 114.871 57.3332 110.983 44.3298C105.945 27.4819 103.188 22.7384 93.7416 14.6605C88.7652 10.4053 85.1875 8.01187 79.701 5.26889C71.9213 1.37913 64.3263 -0.594764 60.0347 0.158104ZM57.2969 27.0228C56.4584 27.287 54.5144 27.5428 52.9768 27.5911C49.6853 27.6949 47.215 28.3386 45.1755 29.6231C36.9095 34.8293 32.228 44.0169 29.8861 59.6275C28.7856 66.9659 28.7546 67.3512 28.4126 78.0077C28.238 83.4587 27.8914 89.8702 27.6426 92.2557C27.2181 96.3281 27.2379 96.7956 27.9641 99.913C29.1089 104.827 32.3824 111.478 35.4867 115.196C37.5164 117.628 48.2626 126.746 52.0883 129.284C55.575 131.596 60.381 132.627 64.8105 132.012C69.8477 131.313 71.6506 130.275 80.6745 122.877C86.9299 117.749 89.4849 115.064 91.8785 111.103C94.4123 106.911 95.8332 103.339 96.9881 98.2577L97.8636 94.4058L95.7482 89.7206C92.4812 82.4857 90.985 77.354 88.5136 64.9059L88.0945 62.7965L86.058 63.0498C84.9377 63.1893 82.4821 63.7187 80.6011 64.2265C78.72 64.7343 76.452 65.1639 75.561 65.1816C73.9496 65.2137 73.941 65.2068 73.941 63.9782C73.941 62.856 74.1059 62.6603 75.741 61.8425C78.0231 60.7011 81.8762 59.6812 85.0079 59.39C86.3464 59.2653 87.4411 59.0502 87.4411 58.911C87.4411 57.521 84.9719 47.0688 83.8497 43.7092C82.2002 38.7703 79.6301 33.2061 78.3712 31.8485C77.3913 30.7918 75.359 30.2981 69.5503 29.7056C65.145 29.2565 62.981 28.6489 61.3487 27.4023C59.9951 26.3687 59.5141 26.3236 57.2969 27.0228ZM39.7405 58.4353C38.1641 58.6415 34.9042 59.9721 33.3555 61.0414C31.833 62.093 31.3791 63.0228 32.0148 63.7894C32.6164 64.5152 33.7015 64.4431 34.7635 63.6067C35.2567 63.2181 36.5185 62.5792 37.5676 62.186C39.8827 61.3189 41.7548 61.5135 49.2216 63.3969C53.6778 64.5213 54.2167 64.588 54.9507 64.1065C55.8367 63.5256 56.0343 62.1006 55.3107 61.5124C54.0414 60.4809 43.5811 58.0288 41.3606 58.2422C41.0636 58.2706 40.3346 58.3575 39.7405 58.4353ZM45.6759 68.8227C45.0394 69.5006 44.7878 70.2545 44.6748 71.8208C44.5434 73.6369 44.6384 74.047 45.3923 74.9246C47.0209 76.8202 49.2853 75.9823 50.0316 73.208C51.0893 69.275 48.0876 66.2527 45.6759 68.8227ZM64.5906 68.4987C64.1697 68.9203 64.0599 69.4919 64.1928 70.571C64.2936 71.3905 64.4775 73.1734 64.6014 74.5332C64.8509 77.2733 65.6051 79.7376 67.0937 82.6785C69.0942 86.631 68.6496 90.436 65.8027 93.7293C64.2281 95.5508 64.1701 95.745 64.9664 96.5426C65.7246 97.3012 65.8635 97.2749 67.5487 96.0528C70.0853 94.2137 71.8691 89.2878 71.2312 85.8857C71.0584 84.9659 70.2444 82.6367 69.4222 80.7096C67.9739 77.3165 66.9594 73.1027 66.9335 70.3749C66.9216 69.1423 66.1976 67.9166 65.4809 67.9166C65.3113 67.9166 64.9106 68.1786 64.5906 68.4987ZM79.791 68.6663C77.4111 70.0538 77.6181 75.8043 80.07 76.4206C83.12 77.1868 85.1407 71.2907 82.5832 69.0886C81.563 68.2096 80.7775 68.0911 79.791 68.6663ZM56.8552 92.9469C56.0909 93.8688 56.5898 94.7388 58.2041 95.2989C59.3428 95.6939 59.9001 95.7303 60.3602 95.4398C61.3837 94.7936 61.1018 93.751 59.7208 93.0749C58.1537 92.3079 57.4124 92.2748 56.8552 92.9469ZM121.074 99.0009C121.166 99.447 121.339 101.028 121.459 102.515C121.794 106.668 122.677 111.428 123.656 114.357C124.144 115.815 126.095 120.437 127.993 124.628C129.891 128.819 131.607 132.706 131.807 133.266C133.173 137.087 133.475 126.148 132.153 120.795C130.876 115.63 126.701 106.194 123.443 101.11C121.575 98.1946 120.76 97.4688 121.074 99.0009ZM48.5895 101.659C47.229 103.39 47.5638 104.411 50.4507 107.334C53.4236 110.344 56.3198 111.931 60.0808 112.611C63.8745 113.298 68.5971 112.404 71.9073 110.372C73.7394 109.247 76.6007 106.521 77.2321 105.299C77.7073 104.379 77.6951 104.141 77.1108 102.945C76.349 101.384 74.9119 100.904 74.5983 102.105C74.3301 103.131 71.818 103.424 63.6808 103.378C56.813 103.34 51.9537 102.7 50.7567 101.676C49.6363 100.717 49.3314 100.715 48.5895 101.659ZM53.2335 106.269C53.7242 106.804 55.3367 107.841 56.8159 108.573C59.3518 109.827 59.7039 109.903 62.9623 109.903C66.2243 109.903 66.571 109.828 69.1212 108.566C70.6073 107.83 72.1381 106.87 72.5222 106.432C73.1346 105.735 73.1439 105.664 72.5967 105.864C72.2536 105.989 69.9046 106.198 67.3766 106.328C63.2409 106.54 58.1303 106.241 53.7807 105.531L52.3407 105.296L53.2335 106.269ZM82.5811 125.091C72.4855 133.597 69.4074 135.094 62.0608 135.063C55.5519 135.036 51.6124 133.196 43.5555 126.418C41.4959 124.685 39.8838 123.423 39.9738 123.613C40.0635 123.803 40.8058 125.337 41.6234 127.022C43.6642 131.229 44.5952 134.779 44.836 139.275C45.1532 145.191 44.107 148.732 40.8645 152.717L39.2891 154.653L39.1444 158.256L39 161.858L49.5694 169.037C55.3824 172.985 60.4174 176.348 60.758 176.509C61.2083 176.723 63.4836 175.671 69.0989 172.655C73.3462 170.375 79.494 167.08 82.7611 165.334L88.7012 162.16L90.6859 158.356C91.777 156.264 93.1958 153.887 93.8381 153.075L95.0055 151.6L93.2286 150.321C90.0872 148.062 87.0793 143.173 85.9896 138.554C85.3704 135.931 85.3459 125.925 85.9532 123.832C86.2038 122.969 86.3572 122.218 86.2949 122.161C86.2322 122.104 84.5611 123.423 82.5811 125.091Z" fill="black"/>
</svg>
