<svg width="123" height="169" viewBox="0 0 123 169" fill="none" xmlns="http://www.w3.org/2000/svg">
<path fill-rule="evenodd" clip-rule="evenodd" d="M48.2579 0.823283C45.4393 1.98139 43.102 3.69905 39.8571 6.99604C36.9969 9.90266 35.6452 11.8028 33.9147 15.3492C33.1972 16.8204 32.7628 17.3046 31.8257 17.6797C31.1747 17.9399 30.1592 18.5592 29.5687 19.0561C28.445 20.0015 26.7782 23.1344 26.4388 24.9398C26.303 25.6604 26.0568 25.9953 25.6624 25.9953C25.345 25.9953 24.7398 26.2746 24.3182 26.6159C23.6922 27.1225 23.5467 27.5571 23.5262 28.9808C23.5058 30.4192 23.3492 30.8768 22.6329 31.5929C21.6844 32.5412 21.5219 33.6584 22.1983 34.5833C22.5751 35.0984 22.4689 35.5089 21.3861 37.7169C20.701 39.1147 20.1404 40.4751 20.1404 40.7405C20.1404 41.0058 20.4863 41.6251 20.9093 42.1165L21.6779 43.0099L20.6699 44.8584L19.6615 46.7067L20.2742 49.7474C20.6111 51.4199 21.7422 56.2953 22.7875 60.5818C23.8329 64.868 24.6882 68.5635 24.6882 68.7934C24.6882 69.1178 24.5349 69.1295 24.0044 68.8457C22.4766 68.0283 20.0052 69.3971 19.2103 71.5016C18.4586 73.4914 18.1211 77.5019 18.4996 79.9461C18.9284 82.716 20.8209 88.5909 21.8279 90.2787C23.1536 92.5001 25.1303 94.8887 26.0265 95.3521C27.0677 95.8903 28.6893 95.9607 29.542 95.5044C30.0455 95.2349 30.2131 95.4096 30.7102 96.7223C31.0292 97.5654 32.5673 100.833 34.1282 103.983L36.9663 109.712L37.1697 112.914C37.2818 114.676 37.4335 116.592 37.5072 117.172C37.6118 117.996 37.5208 118.23 37.093 118.239C35.6315 118.27 33.9498 120.122 28.3297 127.892L25.04 132.44L22.9184 132.575C21.3559 132.674 20.5607 132.9 19.9003 133.43C18.4528 134.591 16.6083 135.341 13.3186 136.107C9.38768 137.023 1.4095 139.787 0.610382 140.509C0.274818 140.813 0 141.369 0 141.745C0 144.01 7.62768 152.294 12.9938 155.856C23.0614 162.54 36.4466 166.918 51.9751 168.606C57.403 169.196 69.6285 169.11 75.5264 168.441C93.2911 166.424 108.653 160.433 118.511 151.678C120.02 150.339 121.688 148.637 122.219 147.896C123.862 145.602 123.573 145.332 114.737 140.905C109.95 138.507 105.902 136.717 103.719 136.033L100.267 134.953L98.2918 132.227C95.5862 128.492 90.7986 122.628 89.8393 121.874C89.0779 121.275 89.0431 121.065 88.8294 115.762L88.6078 110.271L90.5819 106.53C91.6676 104.473 93.2255 101.259 94.0441 99.388C94.8627 97.517 95.6482 95.8701 95.7902 95.7282C95.9321 95.5863 96.4584 95.6262 96.9599 95.8169C98.9356 96.5677 101.217 94.9787 102.551 91.922C102.979 90.9396 104.294 88.2041 105.472 85.8428C107.556 81.6644 107.617 81.4695 107.77 78.5356C108.024 73.6911 106.882 70.3636 104.14 67.9571C103.487 67.3839 102.796 66.9153 102.605 66.9153C102.413 66.9153 102.335 66.7101 102.432 66.459C102.528 66.208 103.069 63.833 103.633 61.1816C104.197 58.5299 104.962 55.6522 105.332 54.7867C105.954 53.336 105.974 53.0493 105.59 51.1195C105.211 49.2161 105.226 48.968 105.753 48.386C106.559 47.4955 106.477 46.2546 105.467 44.0472L104.601 42.1561L105.609 41.0077C106.462 40.037 106.589 39.6788 106.431 38.6919C106.197 37.2294 99.5551 23.9782 97.0392 19.9534C93.7352 14.6676 91.2242 12.9837 78.485 7.51176C62.5885 0.683311 53.4944 -1.32892 48.2579 0.823283ZM44.1493 31.8072C40.5958 32.9439 38.1813 35.1942 36.3927 39.0354C34.6895 42.6939 33.7838 47.5338 33.7838 52.9785C33.7838 55.6038 33.7215 55.8624 32.8139 57.0045C31.5492 58.5952 31.1575 59.9537 30.9479 63.4751C30.8066 65.8494 30.8563 66.3372 31.2241 66.1986C31.4706 66.1054 32.4848 65.7942 33.4778 65.5071C34.6479 65.1684 35.7414 64.5533 36.5859 63.758C37.3022 63.0831 39.161 61.8955 40.7167 61.1183C44.1194 59.4188 46.9105 58.9593 51.9751 59.2649C57.5803 59.6033 58.472 60.0469 58.472 62.4982C58.472 63.9457 57.7187 64.4286 56.1585 63.9808C54.2 63.4192 46.3982 62.9237 45.1534 63.2819C44.1938 63.5579 44.5294 63.6138 47.3035 63.6385C51.3219 63.6742 55.4243 64.3604 59.2201 65.6318C63.1264 66.9403 65.5488 66.928 69.5762 65.5789C73.5269 64.2558 77.2298 63.6778 82.0233 63.6365C84.4784 63.6154 85.6209 63.5069 85.1093 63.3433C84.1289 63.0295 77.0518 63.2413 74.085 63.6729C72.1275 63.958 71.9079 63.9291 71.3995 63.3205C70.7969 62.5995 71.0321 61.4375 71.9963 60.3723C72.7616 59.527 76.4434 58.9629 81.2111 58.9606C85.3097 58.9586 85.6862 59.0119 86.9641 59.7705C88.9015 60.9205 91.8157 63.3806 92.2 64.1906C92.4076 64.6274 93.0585 65.0099 93.9964 65.246C96.3031 65.8267 96.2713 65.852 96.0374 63.6144C95.7677 61.0365 94.6912 58.7157 92.7522 56.533C91.2206 54.8092 91.2066 54.7731 91.4083 53.0584C91.6987 50.5882 91.0578 46.9613 89.8985 44.5116C89.1516 42.9342 88.1199 41.6251 85.7872 39.2946C82.379 35.8898 80.1343 34.2809 76.6383 32.7373L74.3498 31.7267L71.3878 33.1641C69.7588 33.9545 68.0501 34.9055 67.5907 35.277C66.3518 36.2789 65.7999 36.3893 64.7656 35.8421C57.0313 31.7481 49.1539 30.2065 44.1493 31.8072ZM39.3062 67.2553C34.5784 68.1897 33.4583 68.5528 33.4645 69.1497C33.4928 71.7841 35.4405 77.1115 36.954 78.6931C38.1796 79.974 39.695 80.2679 44.9832 80.2507C50.1765 80.2335 52.4094 79.8782 53.9934 78.8172C55.3477 77.9098 57.2311 75.1458 58.3109 72.4811C59.0217 70.727 59.0951 70.2542 58.7969 69.3507C58.4788 68.3878 58.2476 68.2371 56.3618 67.7633C53.6029 67.0705 53.6062 67.0686 55.2983 68.3602C57.0599 69.705 57.3507 70.3302 56.6854 71.3454C56.0084 72.3781 55.4938 72.3135 53.7397 70.9748C52.0892 69.7154 51.6503 69.5858 51.6503 70.3578C51.6503 70.6436 51.1533 71.3743 50.5458 71.9816C49.6902 72.837 49.172 73.0858 48.2469 73.0858C46.6987 73.0858 45.1534 71.6468 45.1534 70.2048C45.1534 69.2578 45.1186 69.2344 44.1948 69.5566C43.6676 69.7404 42.5735 70.4741 41.7633 71.1869C40.1365 72.6185 39.1314 72.6597 38.7923 71.3087C38.5292 70.2604 39.3871 69.0685 41.2936 67.8331C43.563 66.3632 43.6669 66.3934 39.3062 67.2553ZM85.759 66.7383C85.759 66.8266 86.1611 67.1069 86.6523 67.3619C87.9955 68.0581 89.9819 70.1123 89.9819 70.805C89.9819 71.5266 89.1542 72.4363 88.4977 72.4363C88.2427 72.4363 87.4995 71.9319 86.8459 71.3155C86.1923 70.6991 85.2054 69.9752 84.6525 69.7063L83.6475 69.2179L83.4552 70.339C83.2044 71.8007 82.3608 72.6987 80.9987 72.9543C79.4524 73.2443 78.1469 72.6003 77.4329 71.195C77.0989 70.538 76.7894 69.9398 76.7445 69.8654C76.7 69.7911 75.8853 70.2659 74.9342 70.9209C72.94 72.294 72.7405 72.332 71.9742 71.4854C71.1738 70.601 71.5577 69.7245 73.3564 68.3296L74.8767 67.1504L73.7573 67.3622C70.7362 67.9338 70.2243 68.1923 69.8465 69.3361C69.5226 70.3172 69.5996 70.7316 70.5114 72.9218C71.8621 76.1649 73.7069 78.4798 75.6414 79.3589C76.9216 79.9409 77.9292 80.064 82.2835 80.1721C88.4646 80.3254 89.9871 80.1328 91.2956 79.0319C92.9582 77.6334 94.4908 73.9565 95.0031 70.1366L95.2028 68.6489L93.973 68.2942C93.2967 68.0991 91.5006 67.7038 89.9819 67.4154C88.4633 67.1274 86.892 66.8211 86.4899 66.7351C86.0877 66.6487 85.759 66.6503 85.759 66.7383ZM62.6518 70.3289C62.0784 70.6403 61.7263 71.1671 61.5837 71.9264C61.1965 73.9896 58.7563 78.3641 57.0281 80.0922C54.9218 82.1986 53.2755 82.7695 48.077 83.1963C43.3287 83.5863 38.6552 83.1726 36.7334 82.1924C35.3801 81.5023 33.7588 79.8035 32.9373 78.2154C32.1924 76.7751 30.8612 72.7847 30.8554 71.9735C30.8511 71.4194 30.7943 71.3863 30.5354 71.7867C30.3622 72.0547 30.2183 73.1046 30.2154 74.1202C30.2128 75.1357 30.0731 76.3279 29.9049 76.7699C29.4426 77.9855 30.7348 86.1737 32.2821 91.8324C33.344 95.7159 35.4789 100.348 40.7797 110.271C44.3614 116.976 47.7226 120.545 52.8262 123.062C56.2075 124.73 59.1321 125.393 63.1309 125.396C70.8629 125.403 77.1002 121.854 82.4631 114.397C87.0132 108.069 93.6014 94.2681 95.502 87.0827C96.4532 83.4863 97.1285 80.0247 97.1285 78.7448C97.1285 78.028 97.3621 77.4262 97.7782 77.07C98.1355 76.764 98.4315 76.1444 98.436 75.693C98.4461 74.6599 100.443 71.9037 101.698 71.1895C102.759 70.5858 102.783 70.0515 101.755 69.8999C101.232 69.8226 100.799 70.2246 99.9108 71.6133C99.2722 72.6113 98.4123 73.556 97.9998 73.7129C97.495 73.9048 97.1139 74.4586 96.8332 75.4091C96.1972 77.563 94.8657 79.8204 93.5075 81.047C91.5435 82.8209 89.3842 83.2992 83.4851 83.2671C78.3382 83.2388 75.1083 82.7247 73.512 81.679C72.4848 81.0061 72.4611 81.048 73.0013 82.5851C73.781 84.8048 73.9106 87.7267 73.2833 88.9397C72.7714 89.9289 72.7785 90.0176 73.4383 90.9097C74.0045 91.6755 74.0626 91.9681 73.7605 92.5325C73.3551 93.2899 72.4293 93.4224 71.5178 92.8534C71.0354 92.552 70.68 92.666 69.5505 93.4841C67.9097 94.6721 66.8215 94.5165 66.6493 93.0694C66.562 92.3354 66.8589 91.8944 68.3093 90.6018C70.6771 88.4922 71.0487 87.5465 70.5182 84.9795C70.1583 83.2372 66.7747 73.8243 65.4549 70.8936C64.9231 69.7131 64.0931 69.5459 62.6518 70.3289ZM22.2824 72.1927C21.5681 73.2995 21.1516 77.1499 21.4836 79.581C22.0225 83.5279 23.9371 88.4328 26.01 91.1776C27.3682 92.9759 27.7661 93.1678 28.7078 92.4793C29.2477 92.0844 29.2493 91.9464 28.7371 89.9068C28.2754 88.0697 28.0568 87.6942 27.2574 87.363C25.9713 86.8304 24.0385 84.6194 24.0385 83.6805C24.0385 82.5104 24.9263 80.2432 25.8677 79.0094L26.7097 77.9059L25.8375 76.9959C25.358 76.4955 24.4 75.831 23.7091 75.5196C22.1684 74.8249 21.8594 74.1458 22.7008 73.3044C23.3333 72.672 23.3466 72.6724 24.6625 73.3232C25.3915 73.6837 25.9876 73.8763 25.9876 73.7512C25.9876 73.2641 23.5808 71.462 22.9305 71.462C22.8333 71.462 22.5419 71.7906 22.2824 72.1927ZM102.211 74.0929L101.07 75.4251L102.024 76.7413C104.022 79.4995 103.907 81.516 101.577 84.5587C100.623 85.8054 100.377 86.4118 100.377 87.5228C100.377 89.0566 99.8514 89.7298 98.6533 89.7298C98.0638 89.7298 97.7967 90.0342 97.3871 91.1731C96.9219 92.4669 96.9196 92.6365 97.3673 92.8083C98.463 93.2285 98.7385 92.8404 101.802 86.5634C102.587 84.9558 103.571 82.9829 103.989 82.1791C104.609 80.9866 104.75 80.2101 104.756 77.9572C104.764 74.6583 104.414 72.761 103.799 72.761C103.552 72.761 102.838 73.3605 102.211 74.0929ZM99.9514 80.4634C99.8459 81.4845 99.8147 82.3746 99.8819 82.4419C100.237 82.7971 101.046 80.4092 100.859 79.5573C100.532 78.0667 100.161 78.4369 99.9514 80.4634ZM26.8211 82.4587C26.6324 83.2778 26.6996 83.6799 27.0907 84.0709C27.5689 84.5486 27.6092 84.5259 27.5793 83.7912C27.5614 83.3512 27.4403 82.6257 27.3097 82.1791C27.0784 81.3883 27.0657 81.3955 26.8211 82.4587ZM59.2286 90.4317C58.0682 90.9532 57.4023 91.9454 57.6969 92.7131C57.9503 93.3737 59.3845 93.7377 59.8601 93.2623C60.0615 93.0609 60.9249 92.8963 61.7793 92.8963C63.1784 92.8963 63.3531 92.8131 63.5432 92.0568C63.6764 91.5261 63.589 91.0539 63.3057 90.773C62.6131 90.0861 60.4081 89.9017 59.2286 90.4317ZM49.8867 99.577C49.1578 100.306 49.2526 100.871 50.2333 101.642C54.4206 104.935 70.8083 105.113 77.0892 101.933C78.1092 101.417 78.3096 101.158 78.2261 100.463C78.053 99.0171 77.289 98.8388 74.8117 99.6666C68.4707 101.785 59.3767 101.865 53.3489 99.8546C50.5559 98.9229 50.5422 98.9219 49.8867 99.577ZM40.4967 122.004L40.5503 128.053L43.8923 132.272C45.7306 134.592 47.8762 137.205 48.6604 138.077C50.0793 139.655 50.0959 139.662 52.1272 139.662C53.2495 139.662 54.6275 139.754 55.1895 139.866C56.6019 140.149 58.6517 142.384 63.1923 148.593C65.2824 151.451 67.2951 154.119 67.6648 154.523L68.3369 155.257L69.2254 154.407C71.1127 152.599 72.7148 148.549 73.2326 144.277C73.347 143.332 73.5974 142.236 73.7888 141.841C74.1575 141.081 78.156 137.449 81.3167 135.005C83.193 133.554 84.4053 131.96 85.8736 129.013C86.5915 127.572 86.6182 127.305 86.3349 124.4C86.1696 122.705 85.9792 121.263 85.9123 121.195C85.845 121.129 84.8695 121.579 83.7443 122.196C81.9079 123.203 73.7251 126.416 70.8161 127.272C66.7543 128.467 59.1815 128.565 55.5484 127.47C52.8233 126.649 48.474 124.284 46.1828 122.376C45.0517 121.434 43.3258 119.604 42.3477 118.309C41.3696 117.014 40.5409 115.954 40.5062 115.955C40.4714 115.955 40.4672 118.677 40.4967 122.004ZM32.1336 127.727C31.1919 129.022 29.8412 130.885 29.1321 131.868C28.4226 132.85 27.4789 134.047 27.0352 134.528L26.228 135.401L27.8041 137.61C30.0088 140.699 37.016 149.792 38.8917 151.998C39.0707 152.208 39.6931 151.398 43.7049 145.731L47.1106 140.92L45.0761 138.472C43.9573 137.126 41.3959 133.884 39.3838 131.267C34.8025 125.308 34.8581 125.372 34.3049 125.372C34.0522 125.372 33.075 126.432 32.1336 127.727ZM91.7679 130.898C91.0536 131.256 88.7151 132.943 86.5711 134.646C79.483 140.276 77.9474 141.642 78.2063 142.085C78.5646 142.698 88.4672 154.928 88.5331 154.839C88.564 154.798 90.6612 150.694 93.1937 145.72L97.7984 136.677L95.9958 134.191C95.004 132.824 93.9395 131.377 93.63 130.976L93.0667 130.246L91.7679 130.898ZM20.178 136.802C19.1986 137.495 17.7615 138.044 15.5743 138.56C12.334 139.326 4.72616 141.716 3.96603 142.207C3.34915 142.605 5.77736 145.745 9.20187 148.978C19.797 158.98 39.0626 165.486 59.7214 166.04L63.0819 166.13L64.1253 162.72C64.6993 160.845 65.4123 158.85 65.7099 158.287C66.1786 157.402 66.1887 157.213 65.7836 156.877C65.3711 156.534 63.4568 154.002 58.5396 147.294C57.7541 146.222 56.5249 144.716 55.8083 143.948C54.6697 142.726 54.3556 142.562 53.3213 142.649C52.157 142.746 52.107 142.809 50.297 146.49C49.2848 148.549 47.8961 150.847 47.211 151.595C45.7816 153.158 43.2102 154.601 41.8565 154.601C41.3472 154.601 40.6381 154.893 40.2807 155.251C39.6145 155.917 38.7728 156.074 38.1322 155.652C37.3412 155.13 26.5619 141.178 24.2103 137.632C22.7567 135.44 22.2496 135.336 20.178 136.802ZM96.5877 145.589C94.5022 149.742 92.1779 154.397 91.423 155.934C90.1346 158.555 89.597 159.148 88.5058 159.148C88.2593 159.148 85.7957 156.334 83.0316 152.896C75.7479 143.836 76.1686 144.302 76.103 145.227C75.7719 149.894 73.6017 154.43 70.0332 157.913C68.4074 159.5 68.0546 160.089 67.0528 162.891L65.9165 166.069L70.0719 165.862C78.3402 165.448 88.3506 163.504 96.2787 160.771C104.361 157.985 112.217 153.517 117.258 148.84L119.683 146.59L113.969 143.79C106.018 139.893 101.724 138.038 100.652 138.038C100.502 138.038 98.6732 141.436 96.5877 145.589ZM69.7877 159.229C69.2049 159.7 68.2174 162.108 68.2174 163.059C68.2174 163.436 68.5568 163.863 69.0282 164.078C70.1752 164.6 70.9295 163.818 71.4765 161.539C71.8829 159.845 71.8706 159.685 71.3031 159.27C70.553 158.721 70.4208 158.718 69.7877 159.229Z" fill="black"/>
</svg>
