<svg width="100" height="160" viewBox="0 0 100 160" fill="none" xmlns="http://www.w3.org/2000/svg">
<path fill-rule="evenodd" clip-rule="evenodd" d="M41.6433 0.289176C28.7602 3.43766 13.3717 14.7492 8.31287 24.7891C6.05253 29.2746 5.27119 33.3889 4.83811 43.0774L4.5878 48.6856L3.41654 49.2465C1.88088 49.9819 0.688975 51.8214 0.191724 54.2236C-0.151286 55.8803 -0.0713498 56.818 0.737762 60.65C1.38288 63.7057 1.8107 67.402 2.0794 72.2404C2.51473 80.0755 2.99434 81.9117 4.92405 83.1365C6.36289 84.0492 6.44395 84.2014 6.7363 86.5333C7.09319 89.3797 8.61159 95.526 9.99414 99.721C12.9112 108.572 17.7362 116.2 23.1373 120.5L24.5214 121.601L22.8675 133.936C20.8838 148.728 20.4162 155.382 21.3086 156.12C21.6366 156.392 22.2085 156.556 22.5797 156.486C23.1403 156.381 23.3077 155.791 23.57 152.997C23.7434 151.148 24.0928 148.457 24.3458 147.017L24.8059 144.4L25.2663 146.644C25.5196 147.877 25.8792 149.253 26.0649 149.7C26.5813 150.944 29.4999 152.46 31.8402 152.701C34.1155 152.934 34.0709 152.872 34.5433 156.48C34.8462 158.795 35.6883 160.014 36.9748 160C37.8229 159.991 48.7936 154.218 56.6547 149.646C58.5124 148.565 62.3121 146.373 65.0986 144.773C76.2993 138.343 84.1382 132.723 89.0181 127.626C94.2627 122.148 94.1215 123.476 90.6059 112.698C88.5208 106.307 87.6179 102.983 87.6231 101.72C87.6284 100.418 89.0049 83.457 89.1051 83.457C94.7404 83.457 96.4742 81.573 97.1902 74.6707C97.3287 73.334 98.0178 69.0994 98.721 65.2603C99.4247 61.4217 100 57.288 100 56.0747C100 50.3849 97.131 46.8962 93.3928 48.0392C92.3014 48.3731 92.1172 48.3402 92.1055 47.8093C92.098 47.4686 91.9363 44.4981 91.7464 41.2079C91.3084 33.6252 90.5087 30.8154 86.8512 24.0088C83.8654 18.4529 81.3765 14.9193 79.0531 12.9385C74.8106 9.3215 61.509 2.47416 55.7604 0.947962C52.489 0.0798008 44.1022 -0.311657 41.6433 0.289176ZM42.5816 3.07986C36.7545 4.27106 29.8816 7.60349 23.8391 12.1668C16.5252 17.6905 13.449 20.9669 10.9654 25.8786C8.59996 30.5571 8.04266 33.7773 7.73043 44.5729L7.4925 52.7984L6.45821 52.9169C5.78383 52.9943 5.34549 52.8316 5.19838 52.4495C5.07454 52.1272 4.7518 51.8637 4.48122 51.8637C3.57378 51.8637 3.70138 52.6914 4.78707 53.8494C7.3634 56.5974 8.96211 62.239 7.50563 63.4433C6.45934 64.3084 5.68851 63.4567 5.15861 60.8496C4.64897 58.3397 3.09304 55.3053 2.88026 56.4056C2.81458 56.7447 3.03562 58.0776 3.3715 59.3683C4.27331 62.8357 5.03138 69.0915 5.0903 73.549C5.11882 75.7082 5.25881 77.9795 5.40179 78.5965C5.5444 79.2134 5.58605 76.834 5.49411 73.3086C5.29446 65.6552 5.42506 64.8562 6.84889 65.0196L7.86778 65.1366L8.12485 70.7449C9.08895 91.7669 13.4254 105.86 21.8693 115.413C22.9651 116.653 23.9829 117.667 24.1307 117.667C24.279 117.667 24.339 117.027 24.2639 116.244C24.1709 115.271 24.3157 114.666 24.7229 114.329C25.7069 113.516 26.3622 114.466 26.6474 117.119C26.8117 118.651 27.1266 119.688 27.5188 119.994C28.0614 120.416 28.0753 120.398 27.637 119.84C27.3642 119.492 27.1953 118.735 27.2617 118.157C27.357 117.329 27.5743 117.107 28.2896 117.107C29.6474 117.107 30.2362 119.046 29.1453 119.926L28.362 120.558L29.4038 121.552L30.4452 122.546L30.2891 121.488C30.0876 120.119 31.093 119.133 31.8646 119.943C32.7315 120.853 32.8973 122.028 32.25 122.673C31.9201 123.001 31.7557 123.44 31.8841 123.647C32.2684 124.266 32.8242 124.074 32.8242 123.321C32.8242 122.936 33.0775 122.41 33.3871 122.154C34.2172 121.468 34.931 122.227 35.2391 124.124C35.4497 125.42 35.5634 125.587 35.8677 125.052C36.4318 124.058 37.6616 124.241 38.098 125.384C38.6354 126.792 38.9177 126.259 38.4073 124.8C38.0583 123.802 38.086 123.481 38.5641 123.005C38.8839 122.687 39.407 122.526 39.7268 122.648C40.5194 122.951 40.916 124.723 40.3816 125.576C39.9932 126.195 40.075 126.266 41.1712 126.261C42.0625 126.257 42.2461 126.162 41.8479 125.911C41.1832 125.493 40.6241 120.411 41.136 119.443C41.5934 118.579 42.46 118.612 42.9437 119.512C43.5119 120.57 43.4473 125.785 42.863 126.019C42.6052 126.123 42.7654 126.221 43.2195 126.237C43.9652 126.264 44.056 126.059 44.1577 124.121C44.2497 122.368 44.3994 121.95 44.9759 121.84C45.8263 121.679 46.3209 122.363 46.3288 123.712C46.3359 124.972 46.6838 125.893 47.1521 125.893C47.351 125.893 47.4595 125.449 47.3934 124.907C47.2396 123.652 48.2457 122.903 49.1175 123.623C49.4444 123.894 49.7119 124.347 49.7119 124.63C49.7119 124.913 49.903 125.145 50.1364 125.145C50.4265 125.145 50.4719 124.702 50.2798 123.743C49.7551 121.126 49.8414 120.128 50.6051 119.977C51.4566 119.808 51.8394 120.337 52.3896 122.441C52.8977 124.386 53.6993 125.098 53.3342 123.28C52.8884 121.059 54.6293 120.149 55.4782 122.16C55.7401 122.781 56.0543 123.188 56.1766 123.066C56.2993 122.944 56.1323 122.381 55.8058 121.815C55.0965 120.583 55.3986 119.537 56.4633 119.537C56.9463 119.537 57.3993 119.921 57.677 120.565C57.9205 121.13 58.1667 121.659 58.2234 121.741C58.2801 121.822 58.9026 121.495 59.6067 121.014C60.6639 120.293 60.8162 120.028 60.4818 119.495C60.1831 119.019 60.206 118.695 60.57 118.259C61.1844 117.521 61.5154 117.516 62.2363 118.234C62.7448 118.741 63.2882 118.462 67.3417 115.617C71.8991 112.418 72.9 111.997 73.6907 112.946C74.4278 113.831 73.7594 114.601 70.0309 117.162C65.8537 120.032 65.135 120.633 66.975 119.715C71.6518 117.384 79.401 110.945 82.7782 106.585L84.4257 104.458L85.3955 92.9492C86.0443 85.2456 86.5281 81.2443 86.8587 80.8472C87.2516 80.3754 87.7871 80.3036 89.48 80.4943C91.3677 80.707 91.7224 80.6345 92.6309 79.8523C93.4821 79.1192 93.7388 78.4462 94.1516 75.8663L94.6484 72.7623L93.8528 73.4929C92.7428 74.5121 89.6703 75.882 88.8563 75.7209C88.3347 75.6177 88.2007 75.2872 88.2743 74.2874C88.4435 71.988 88.469 68.5217 88.3215 67.8054C88.1136 66.7944 89.2841 66.136 90.2362 66.7282C90.6468 66.984 91.0697 67.193 91.1756 67.193C91.4484 67.193 91.4158 64.7593 91.1328 64.025C90.9425 63.5307 90.7635 63.6324 90.2002 64.5556C89.4132 65.8447 89.1828 65.9143 88.1632 65.1714C87.5008 64.689 87.4802 64.4965 87.9136 62.8346C88.5835 60.2679 91.4022 54.5968 92.9889 52.6234C93.7279 51.7048 94.2732 50.8938 94.2004 50.8216C93.9545 50.5767 92.4872 51.6711 92.3033 52.2368C91.8751 53.5525 90.386 54.9505 89.6579 54.7201C88.9655 54.501 88.928 54.0647 88.9044 45.9791C88.8732 35.2104 88.5613 33.642 85.1012 26.8552C80.2751 17.3888 78.7646 15.6562 71.6285 11.4022C63.1666 6.35808 56.6821 3.67732 51.0922 2.91235C47.4336 2.41172 45.6799 2.4465 42.5816 3.07986ZM63.9727 51.7519C59.7632 52.2084 51.8758 54.9942 49.6523 56.8094C48.5347 57.7217 48.6172 59.4733 49.8148 60.2551C50.5916 60.7621 50.9706 60.7158 54.0367 59.7403C60.4665 57.6937 66.6241 57.4989 72.3386 59.1612C74.0172 59.6494 74.1861 59.6349 74.88 58.9436C75.4515 58.3741 75.5364 58.0402 75.247 57.5015C74.1523 55.4631 67.9031 51.4098 66.0706 51.5496C65.6394 51.5825 64.6952 51.6737 63.9727 51.7519ZM15.4966 53.1323C12.6241 55.3247 11.3943 57.5127 12.3231 58.7783C12.8219 59.4576 12.9169 59.4606 14.8075 58.8523C18.4602 57.6768 21.4977 58.004 30.4685 60.5382C31.94 60.9539 32.1213 60.9225 33.0017 60.0985C34.1099 59.0613 34.2228 57.8339 33.2873 56.9904C31.4487 55.3326 23.4796 52.4877 19.4014 52.0338C17.3467 51.8046 17.1711 51.8543 15.4966 53.1323ZM95.8602 53.56C95.4722 54.0262 95.4726 54.6151 95.8625 56.6741C96.2907 58.9357 96.2727 59.3619 95.6962 60.5722C95.3401 61.3196 94.7152 62.0367 94.3073 62.1657C93.7872 62.3302 93.6472 62.5852 93.8378 63.0204C93.9876 63.3618 94.3978 64.4456 94.7498 65.4286L95.3893 67.2165L96.0276 64.0142C97.1651 58.3076 97.3734 56.5686 97.1351 54.7613C96.8866 52.8758 96.6311 52.635 95.8602 53.56ZM57.4053 60.5946C53.7564 61.787 50.7143 64.3451 50.914 66.0534C51.0889 67.5485 52.465 67.5078 53.9343 65.9644C54.6049 65.2596 55.7022 64.4023 56.3732 64.059C57.5588 63.4522 57.5929 63.4567 57.5929 64.2108C57.5929 65.3901 58.6163 67.1103 59.481 67.3836C60.5749 67.7295 63.0923 67.2382 63.6489 66.5704C63.9071 66.2605 64.2125 65.3377 64.327 64.5204L64.5357 63.0346L66.8928 64.2475C69.0811 65.3736 69.2946 65.4163 69.8681 64.845C70.8645 63.8523 69.9919 62.5781 67.4708 61.3446C65.6626 60.46 64.7368 60.2611 62.0963 60.1901C60.2357 60.14 58.2808 60.3086 57.4053 60.5946ZM18.8565 61.2302C17.2589 62.0707 16.541 63.1546 16.8791 64.2161C17.1771 65.1519 18.3101 65.1534 19.6104 64.2194C20.17 63.8179 21.1003 63.3771 21.6779 63.2395C22.6536 63.0077 22.7118 63.0567 22.4918 63.9293C21.67 67.1926 26.6181 69.0351 28.5411 66.182L29.3483 64.9844L30.2133 65.9016C31.2029 66.9511 32.1438 67.0748 32.8335 66.247C33.9418 64.9167 31.0115 62.0767 27.4407 61.0201C24.7233 60.2163 20.5918 60.3172 18.8565 61.2302ZM35.3468 65.1071C35.0177 65.4349 34.2037 69.3716 33.2111 75.4345C31.3429 86.8489 31.3549 87.0089 34.3088 89.7614C35.3322 90.7152 36.3717 91.4955 36.619 91.4955C36.9058 91.4955 36.8435 91.7434 36.4475 92.1793C35.2459 93.5021 35.9807 95.5787 37.385 94.8298C37.8154 94.6002 38.0984 94.005 38.1314 93.2584C38.181 92.1434 38.2012 92.1648 38.4129 93.5519C38.6092 94.8373 38.7728 95.0474 39.5793 95.0474C40.3449 95.0474 40.5396 94.841 40.6376 93.9258C40.743 92.9376 41.1007 92.6344 43.6399 91.3792C45.2251 90.5959 47.2737 89.7382 48.1928 89.4739C50.0276 88.9463 50.7177 88.2109 50.3282 87.1996C49.9063 86.1041 46.8478 86.6466 43.173 88.4689L40.0067 90.0388L38.1412 89.097C35.8715 87.9514 34.6976 86.5479 34.7096 84.9955C34.7148 84.355 35.3802 79.803 36.1886 74.8797C36.9969 69.9563 37.5745 65.7931 37.4721 65.6279C36.9969 64.8622 35.87 64.5859 35.3468 65.1071ZM30.9755 90.5275C30.2066 91.4503 30.0561 93.5306 30.7185 94.0783C31.6848 94.8773 32.3772 94.2821 32.659 92.4108C32.8549 91.1096 32.79 90.5817 32.4039 90.3383C31.6931 89.8897 31.4837 89.9173 30.9755 90.5275ZM47.2444 90.9089C46.6158 91.3669 46.629 91.4903 47.4895 93.2202C49.0233 96.3033 50.9346 95.3589 49.5138 92.2197C48.767 90.5698 48.1774 90.2291 47.2444 90.9089ZM27.7687 91.3512C27.0414 92.0758 27.0257 93.8813 27.7413 94.4731C28.4225 95.0362 29.0102 94.6956 29.4793 93.4662C30.1582 91.6873 28.9415 90.1828 27.7687 91.3512ZM50.112 91.279C49.7634 91.6974 49.8696 92.204 50.6115 93.6625C51.1294 94.6814 51.794 95.6067 52.0882 95.7193C52.6966 95.9518 53.4648 95.3248 53.4648 94.5958C53.4648 94.1998 53.6085 94.1957 54.2154 94.5733C54.6282 94.8302 54.9659 95.3222 54.9659 95.6669C54.9659 96.0117 55.1772 96.3911 55.435 96.51C55.6932 96.6293 53.6243 96.663 50.8378 96.5848C48.0513 96.5071 44.297 96.6009 42.4945 96.7935C39.9088 97.0698 38.5232 97.0167 35.927 96.5426C31.773 95.7836 27.6265 95.9066 27.0598 96.8054C26.7397 97.3131 26.8834 97.684 27.771 98.6412C30.7398 101.842 31.8188 102.706 33.8356 103.499C35.7109 104.237 36.6671 104.353 40.7051 104.334C46.1224 104.309 49.7562 103.516 54.0352 101.426C57.2439 99.8586 58.6895 98.4834 58.1048 97.5543C57.8845 97.2036 57.3407 96.863 56.8971 96.7972C56.1901 96.6925 56.1582 96.6102 56.6382 96.132C57.2705 95.502 57.0146 94.4866 56.2227 94.4866C55.9263 94.4866 55.724 94.2765 55.7735 94.0192C56.1015 92.3162 54.4169 90.9788 53.4471 92.1722C52.876 92.8748 52.8433 92.8654 52.2417 91.8212C51.5658 90.6479 50.7999 90.4527 50.112 91.279ZM25.0231 91.5658C24.3814 92.2048 24.4576 93.3462 25.1601 93.6147C26.0488 93.9545 27.0962 92.7633 26.599 91.9782C26.0717 91.1455 25.5752 91.0154 25.0231 91.5658ZM33.4655 91.3549C33.3192 91.5007 33.1995 92.265 33.1995 93.0535C33.1995 94.3299 33.3012 94.4866 34.1305 94.4866C35.1059 94.4866 35.6553 93.3956 35.3866 91.9924C35.2541 91.2996 33.9538 90.8685 33.4655 91.3549ZM44.3131 92.4538C44.0433 93.1544 44.9654 95.0612 45.7118 95.3469C46.31 95.5753 47.085 94.9521 47.085 94.2424C47.085 93.9848 46.8891 93.3455 46.6492 92.8217C46.1565 91.7434 44.6764 91.5104 44.3131 92.4538ZM21.9222 93.6012C21.3949 94.9831 21.81 96.0535 22.8176 95.9103C23.331 95.8374 23.7719 96.07 24.0162 96.5429C24.5533 97.5823 25.4067 97.4762 25.9726 96.2999C26.5719 95.0538 26.2316 94.1127 25.1811 94.1127C24.7368 94.1127 24.1622 93.7762 23.9044 93.3649C23.2533 92.3259 22.3684 92.4313 21.9222 93.6012ZM41.8047 93.2094C41.1772 93.9624 41.7578 94.9973 42.9032 95.1671C43.892 95.3136 44.291 94.4514 43.7232 93.3941C43.2252 92.4676 42.4825 92.3958 41.8047 93.2094ZM57.3298 93.6132C57.0304 94.3901 58.3491 96.9168 59.0539 96.9168C60.1054 96.9168 60.4188 95.7339 59.7422 94.3198C59.0539 92.8822 57.7577 92.5024 57.3298 93.6132ZM59.1879 97.3532C58.5259 97.6167 58.6039 99.5344 59.3004 100.111C59.7808 100.508 59.9902 100.484 60.501 99.9752C60.9791 99.4989 61.0388 99.131 60.7637 98.3552C60.391 97.3053 59.9737 97.0398 59.1879 97.3532ZM24.011 98.3189C23.7779 99.008 23.7232 99.7292 23.7731 101.457C23.8207 103.122 24.6103 103.827 25.5538 103.047C26.1985 102.514 26.2477 98.9268 25.6187 98.3002C25.0329 97.7166 24.2114 97.7263 24.011 98.3189ZM33.5747 99.6993C33.5747 101.578 41.2347 102.191 47.2219 100.791C50.1052 100.116 50.5004 99.9386 49.7401 99.6582C49.2443 99.4753 45.8687 99.3729 42.2385 99.4301C38.6088 99.4873 35.1742 99.4047 34.6068 99.2465C33.7312 99.0024 33.5747 99.0712 33.5747 99.6993ZM59.3601 101.076C58.8764 101.558 59.0839 103.105 59.6619 103.326C60.4593 103.631 61.4035 102.741 61.2699 101.81C61.1592 101.036 59.8897 100.548 59.3601 101.076ZM23.9299 104.366C23.7648 104.66 23.7183 106.59 23.8264 108.656C24.0361 112.667 24.4557 113.674 25.6105 112.939C26.1693 112.583 26.2383 112.004 26.1208 108.648C26.0462 106.514 25.8142 104.558 25.6056 104.301C25.1001 103.677 24.3003 103.709 23.9299 104.366ZM59.1068 104.379C58.5428 105.056 58.9481 107.166 59.6971 107.453C60.6537 107.819 61.4039 106.82 61.1277 105.55C60.7674 103.895 59.9193 103.404 59.1068 104.379ZM48.5377 107.137C48.2626 107.576 47.804 107.765 47.2651 107.663C46.2462 107.469 45.812 108.059 46.1081 109.235C46.4125 110.442 47.4974 110.787 48.2149 109.904C48.5305 109.515 49.0023 109.269 49.2631 109.355C49.8508 109.55 50.8378 108.773 50.8378 108.114C50.8378 107.554 49.8268 106.451 49.313 106.451C49.1231 106.451 48.7741 106.76 48.5377 107.137ZM57.4161 107.802C56.6866 108.529 56.6735 108.443 57.7854 110.197C58.7822 111.771 59.4614 112.035 60.2068 111.14C60.57 110.704 60.4923 110.296 59.818 109.101C58.831 107.351 58.2072 107.014 57.4161 107.802ZM32.8992 108.021C31.913 109.004 32.8872 110.906 34.1328 110.43C34.8984 110.137 34.8785 108.095 34.1069 107.8C33.3511 107.51 33.4254 107.497 32.8992 108.021ZM84.2381 109.294C80.6132 113.966 73.3605 119.627 66.5592 123.093C58.095 127.406 50.1435 129.723 41.4613 130.406C36.3578 130.808 34.254 131.415 33.4254 132.723C33.1822 133.107 33.7796 137.048 35.3018 145.104L37.5351 156.92L42.779 154.083C70.2021 139.246 83.5678 130.433 88.8447 123.708L90.5034 121.593L88.2435 114.583C87.0002 110.727 85.8859 107.579 85.7674 107.587C85.6488 107.595 84.9605 108.363 84.2381 109.294ZM35.4699 108.859C35.2234 109.154 35.0762 109.87 35.1427 110.448C35.2391 111.287 35.4523 111.498 36.2017 111.498C36.9512 111.498 37.1643 111.287 37.2608 110.448C37.3756 109.449 36.8134 108.32 36.2017 108.32C36.046 108.32 35.7165 108.563 35.4699 108.859ZM43.5824 108.57C43.1268 109.024 43.3227 110.838 43.877 111.296C44.5826 111.88 45.7309 111.654 45.8762 110.904C46.0751 109.875 45.2652 108.32 44.5297 108.32C44.1461 108.32 43.7198 108.432 43.5824 108.57ZM26.9562 109.253C26.7108 109.89 27.0988 115.34 27.4268 115.869C27.753 116.395 29.0852 116.197 29.3201 115.588C29.444 115.266 29.3963 113.625 29.2143 111.942C28.9148 109.168 28.8045 108.87 28.0378 108.762C27.5184 108.688 27.1007 108.878 26.9562 109.253ZM38.1221 109.36C37.925 109.727 37.8841 110.61 38.0305 111.323C38.247 112.38 38.4677 112.62 39.2194 112.62C39.9943 112.62 40.167 112.411 40.2961 111.311L40.4499 110.003L40.6751 111.124C40.853 112.011 41.0966 112.246 41.8347 112.246C42.571 112.246 42.794 112.032 42.8863 111.236C43.1193 109.223 41.5987 107.895 40.7239 109.349C40.3486 109.972 40.3111 109.972 39.9358 109.349C39.4284 108.506 38.578 108.511 38.1221 109.36ZM54.9832 109.608C54.6222 110.042 54.7802 110.57 55.7825 112.279C57.3621 114.972 58.0402 115.439 59.0483 114.531C59.4603 114.159 59.9576 113.954 60.1538 114.075C60.6676 114.391 61.4692 113.293 61.2118 112.625C61.0921 112.314 60.6511 112.059 60.2315 112.059C59.5294 112.059 59.3192 112.398 59.419 113.368C59.4603 113.77 59.1042 113.275 57.5073 110.712C56.4404 108.999 55.7446 108.694 54.9832 109.608ZM53.2329 111.853C52.9642 112.55 53.6866 114.458 54.4623 115.099C54.8894 115.453 55.1292 115.422 55.5994 114.953C56.1372 114.418 56.1394 114.221 55.6245 112.929C55.0102 111.388 53.6479 110.775 53.2329 111.853ZM35.3262 112.309C34.8552 112.777 35.0744 117.469 35.6155 118.502C35.9263 119.096 36.004 119.615 35.8009 119.74C35.3637 120.009 35.3506 122.913 35.7833 123.593C35.9597 123.87 36.4216 124.037 36.8097 123.963C37.3632 123.859 37.54 123.442 37.6308 122.028C37.6942 121.037 37.5775 120.024 37.3707 119.776C37.1381 119.496 37.126 119.117 37.3396 118.776C37.7569 118.113 37.3745 113.182 36.8551 112.527C36.452 112.018 35.7225 111.913 35.3262 112.309ZM30.0722 113.43C29.5922 113.908 29.814 117.888 30.3619 118.624C30.8209 119.241 31.0172 119.28 31.6687 118.884C32.3577 118.465 32.4579 118.521 32.6609 119.445C33.058 121.249 33.1612 121.406 33.95 121.406C35.0237 121.406 35.2275 120.612 34.8436 117.925C34.5411 115.807 34.4349 115.611 33.5916 115.611C32.9289 115.611 32.5971 115.873 32.4095 116.546C32.2065 117.273 32.14 117.102 32.1111 115.779C32.0653 113.702 31.0146 112.491 30.0722 113.43ZM37.9689 113.414C37.5032 113.878 37.6826 115.316 38.2658 115.798C39.0681 116.461 40.0266 115.592 39.8799 114.335C39.7688 113.385 38.5754 112.81 37.9689 113.414ZM40.9712 113.414C40.4514 113.932 40.6841 117.559 41.2681 118.041C42.326 118.916 43.0056 117.827 42.8799 115.458C42.7857 113.682 42.654 113.351 42.0032 113.259C41.5818 113.198 41.1176 113.269 40.9712 113.414ZM51.3636 114.451C51.242 114.767 51.5516 116.251 52.0515 117.749C52.7731 119.91 53.1293 120.496 53.7774 120.591C55.0485 120.777 55.1468 119.76 54.1425 116.809C53.4167 114.676 53.0554 114.09 52.4054 113.996C51.9269 113.926 51.4927 114.116 51.3636 114.451ZM61.8149 114.176C61.1855 114.429 61.2238 115.226 61.9304 116.588C62.3553 117.406 62.7396 117.682 63.3378 117.597C64.4542 117.439 64.5717 116.182 63.5869 114.935C62.7756 113.907 62.6341 113.847 61.8149 114.176ZM58.8933 115.072C58.5063 115.695 59.0242 117.187 59.7204 117.453C60.0754 117.589 60.5967 117.452 60.9074 117.143C61.396 116.656 61.3874 116.478 60.832 115.634C60.1779 114.639 59.3166 114.389 58.8933 115.072ZM43.4882 115.558C43.3696 115.866 43.3284 116.508 43.3963 116.986C43.4879 117.63 43.7618 117.854 44.458 117.854C45.2798 117.854 45.3962 117.693 45.3962 116.546C45.3962 115.473 45.2438 115.216 44.5503 115.118C44.0568 115.048 43.614 115.231 43.4882 115.558ZM55.739 115.584C55.2192 116.208 55.8126 117.583 57.4252 119.492C58.4943 120.758 59.1436 120.939 59.7977 120.154C60.1212 119.766 59.8743 119.12 58.7259 117.35C57.2131 115.018 56.5414 114.621 55.739 115.584ZM49.2117 116.421C48.6792 116.952 48.976 118.771 49.6545 119.132C50.8397 119.764 51.6116 118.39 50.9853 116.763C50.7556 116.167 49.6755 115.959 49.2117 116.421ZM38.3285 116.795C38.1907 116.932 38.0781 118.115 38.0781 119.424C38.0781 121.947 38.6328 122.718 39.7718 121.776C40.3404 121.306 40.5535 118.31 40.1021 117.137C39.8724 116.541 38.7923 116.333 38.3285 116.795ZM46.4999 116.956C46.152 117.516 46.674 121.848 47.1596 122.431C47.6689 123.042 48.0333 123.025 48.7021 122.359C49.2305 121.833 49.1528 120.565 48.3966 117.387C48.1857 116.5 46.9559 116.221 46.4999 116.956ZM44.0977 118.958C43.3783 119.822 43.7772 120.845 44.8333 120.845C45.4281 120.845 45.8079 120.604 45.8912 120.173C46.021 119.501 45.3677 118.415 44.8333 118.415C44.6775 118.415 44.3465 118.659 44.0977 118.958ZM26.8196 129.258C26.4068 129.669 26.0691 130.489 26.0691 131.081C26.0691 131.672 25.9636 132.681 25.8349 133.323L25.6003 134.49L27.4317 132.715C29.2582 130.945 29.2616 130.937 28.7223 129.725C28.0918 128.308 27.8359 128.245 26.8196 129.258ZM29.8365 139.82C29.3558 140.694 28.645 141.761 28.2573 142.191C27.6051 142.913 27.5875 143.178 28.0228 145.707C28.4371 148.115 28.6289 148.524 29.6267 149.13C30.2501 149.509 31.3287 149.819 32.0237 149.82C33.2025 149.822 33.273 149.753 33.0786 148.793C32.9641 148.228 32.4838 145.62 32.0109 142.998C31.5381 140.377 31.0521 138.231 30.9309 138.231C30.8096 138.231 30.3173 138.946 29.8365 139.82Z" fill="black"/>
</svg>
