<svg width="101" height="158" viewBox="0 0 101 158" fill="none" xmlns="http://www.w3.org/2000/svg">
<path fill-rule="evenodd" clip-rule="evenodd" d="M43.453 0.561708C39.0897 1.29366 30.6205 4.16459 27.5591 5.95022C19.0407 10.9179 11.6221 19.9613 8.54752 29.1241C6.28628 35.865 5.92676 38.6501 5.71021 51.1076L5.51253 62.5032H4.43737C2.83594 62.5032 0.899136 64.3871 0.298553 66.5291C-0.125099 68.039 -0.107746 69.0143 0.413992 73.0327C1.39296 80.5749 3.77303 87.8688 6.18404 90.7164C7.49159 92.2601 10.5662 93.7617 12.4309 93.7666L13.7924 93.7704L14.0358 98.1968C14.1697 100.631 14.2942 106.692 14.3127 111.664C14.3432 119.969 14.2817 120.876 13.5563 122.8C12.5679 125.422 10.519 128.845 8.80103 130.744C8.07784 131.543 7.48593 132.479 7.48593 132.824C7.48593 133.707 12.7671 138.736 17.1828 142.057C27.0343 149.468 38.0165 154.661 49.0548 157.13C52.2848 157.852 54.033 158 59.3579 158C66.5196 158 68.3998 157.621 71.9954 155.449C75.5604 153.296 75.551 153.326 75.7136 143.96L75.8554 135.804L77.9371 133.354C79.0825 132.006 81.4897 128.693 83.2869 125.993C91.7822 113.226 95.2707 105.019 96.2236 95.5598C96.4982 92.832 96.8302 91.1334 97.0886 91.1334C97.8386 91.1334 99.491 89.0908 100.139 87.361C100.625 86.0677 100.815 83.9461 100.95 78.3251C101.243 66.1486 100.288 61.7094 97.0275 60.073L95.4887 59.3011L95.2099 55.9107C95.0568 54.046 94.9481 49.8716 94.9689 46.6341C95.0164 39.1654 93.9582 33.4465 91.451 27.6188C88.2097 20.0841 84.7895 15.4306 78.2634 9.67629C72.811 4.86829 67.3187 2.055 60.7311 0.696948C56.5051 -0.174389 48.229 -0.239185 43.453 0.561708ZM74.6366 20.2868C74.1178 20.445 72.9604 20.9483 72.0645 21.4053C70.5951 22.1549 70.2993 22.1881 69.0465 21.7447C68.1245 21.4184 65.8183 21.2659 62.1873 21.2915C56.1713 21.3341 52.6738 22.0227 48.9801 23.8919C46.5812 25.1057 45.0669 24.9528 41.4294 23.1287C38.2745 21.5465 37.9938 21.5205 34.8366 22.5226C33.3842 22.9837 30.8377 23.4516 29.1778 23.5623C24.217 23.8931 24.1585 23.9432 23.1437 28.7421C22.6733 30.9659 22.9215 39.3342 23.5474 42.349C24.6746 47.7816 24.7523 47.316 22.2032 50.4046C20.9406 51.9345 19.7658 53.4602 19.5923 53.7951C19.4188 54.13 19.155 58.7236 19.0064 64.0036C18.8574 69.2836 18.579 73.8961 18.3873 74.254C18.1957 74.6115 17.4552 75.3487 16.7414 75.8923C14.8604 77.325 14.0331 76.9309 13.7121 74.4491C13.3707 71.811 12.1544 69.284 11.226 69.284C10.8303 69.284 9.677 68.4251 8.66371 67.3752C7.00116 65.6525 6.68126 65.4777 5.39068 65.5858C3.41427 65.7508 3.4154 66.3019 5.39333 67.35C7.91411 68.685 10.0324 70.6537 11.2728 72.8134C12.5098 74.9667 12.6682 76.1187 11.8243 76.8183C10.9317 77.5578 11.1524 78.6811 12.6026 80.7836C14.868 84.0681 14.1746 86.6128 11.0147 86.6128C9.32088 86.6128 8.04502 85.7381 6.90459 83.795C5.68418 81.7155 5.73172 80.7429 7.10982 79.5849C7.73266 79.0616 8.15405 78.4905 8.04615 78.3157C7.93788 78.1413 8.0952 77.2869 8.39511 76.4175C8.91987 74.8967 8.90289 74.7795 7.94618 73.3359C7.12641 72.0988 3.41389 69.0806 3.09926 69.3951C2.86348 69.6302 4.11558 77.0775 4.8316 79.7001C6.26176 84.9391 7.19356 87.0649 8.78971 88.7284C10.57 90.5838 11.8549 91.0061 14.1346 90.4851C17.1183 89.8032 16.9711 89.118 17.3163 105.29C17.5253 115.086 17.4955 120.108 17.2205 121.27C16.6705 123.597 14.2776 128.601 12.6324 130.866L11.272 132.738L12.4913 134.01C14.4149 136.017 20.9643 141.185 24.2736 143.307C36.083 150.88 48.8632 155.184 59.5016 155.169C63.7997 155.163 67.3945 154.501 69.6497 153.301C72.3772 151.85 72.364 151.877 72.6254 147.312L72.8657 143.12H70.9489C68.2418 143.12 63.8159 142.497 58.9807 141.437C56.6983 140.937 53.9659 140.355 52.9084 140.145C45.7656 138.723 36.5199 132.683 28.4603 124.174C23.175 118.594 22.1602 117.139 22.9185 116.227C23.1958 115.893 23.7149 115.62 24.0718 115.62C24.4286 115.62 26.233 117.272 28.0812 119.293C35.3795 127.27 39.9782 131.045 46.7358 134.609C50.8256 136.765 53.2808 137.395 58.7468 137.691C63.4752 137.946 66.3008 137.512 69.8775 135.981C73.5621 134.403 78.8271 127.922 85.7104 116.488C89.2569 110.597 92.4394 102.117 93.1018 96.7939C93.6021 92.7755 93.6138 81.1467 93.1264 73.2497C92.9211 69.9289 92.4888 62.4655 92.1655 56.6641C91.5019 44.7479 91.1217 41.4404 90.0446 38.2052C88.1421 32.4912 84.1667 25.5706 80.5764 21.724C79.0545 20.0935 78.7588 19.9376 77.243 19.967C76.3281 19.9847 75.1553 20.1286 74.6366 20.2868ZM83.5019 55.1335C82.672 55.4304 79.6464 55.928 76.7782 56.2392C72.2293 56.7327 71.399 56.9301 70.2755 57.786C68.7518 58.9462 68.1384 59.9604 68.4576 60.791C68.7688 61.6009 69.9881 62.2157 70.7841 61.9641C71.1391 61.8515 73.7413 61.5166 76.5666 61.2197C80.6986 60.7854 82.0748 60.4855 83.6034 59.6876C85.0513 58.9316 85.9624 58.7165 87.434 58.7835C89.5772 58.8811 90.2298 58.4889 90.0416 57.2164C89.7526 55.2643 86.2532 54.1499 83.5019 55.1335ZM29.4223 56.4234C27.1279 57.2371 25.7932 58.1378 24.6848 59.6206C23.2324 61.5629 25.2586 62.8418 27.5806 61.4484C29.4744 60.3122 30.5707 60.2011 33.8173 60.8159C38.0874 61.6247 51.3376 61.833 52.3746 61.1074C53.437 60.3646 53.3193 59.1184 52.0426 57.5916L50.9524 56.2874L43.4602 56.2294C39.3399 56.1974 34.9498 56.0667 33.7049 55.9393C31.9842 55.763 30.9573 55.879 29.4223 56.4234ZM95.6475 63.2351C95.7592 63.6612 96.0131 64.01 96.2115 64.01C96.7125 64.01 96.4292 62.7876 95.8867 62.6071C95.6057 62.5137 95.5185 62.742 95.6475 63.2351ZM72.8099 64.4478C70.0922 65.8763 68.9088 67.3511 69.7085 68.3136C70.4253 69.1759 71.5363 69.0433 72.8506 67.9388L74.0032 66.9706L74.4664 68.071C75.0036 69.3462 75.6404 69.6607 77.6855 69.6607C79.3345 69.6607 80.6726 68.6481 80.6726 67.4004C80.6726 66.4462 81.0117 66.4553 83.0926 67.4649C84.4934 68.1445 84.8778 68.2002 85.3663 67.7952C85.6896 67.5274 85.9541 66.8957 85.9541 66.3916C85.9541 64.9059 82.4788 63.4924 78.4091 63.3237C75.3786 63.1978 75.0711 63.2596 72.8099 64.4478ZM36.75 65.1255C34.7268 65.9377 32.0072 68.3226 32.0072 69.2851C32.0072 70.0322 32.7353 70.7909 33.4517 70.7909C33.7482 70.7909 34.677 70.1715 35.5157 69.4151L37.0409 68.039L37.3732 68.9363C38.0436 70.7457 38.7955 71.2113 40.6595 70.9713C43.9189 70.552 44.0298 70.4944 44.2931 69.0926C44.5772 67.582 44.9541 67.4875 46.5314 68.5306C47.8767 69.42 48.7262 69.4825 49.3457 68.737C50.0821 67.851 49.4321 66.7205 47.5552 65.6224C46.0311 64.7303 45.3268 64.5807 42.2047 64.4873C39.3191 64.4007 38.2421 64.5265 36.75 65.1255ZM64.3252 65.7682C63.8193 66.2729 64.1211 68.0363 66.56 78.8201L69.0465 89.8149L68.1758 91.4709C67.2319 93.2671 65.5565 94.52 64.0962 94.5223C63.5899 94.5231 62.062 93.854 60.7009 93.0358C56.7077 90.6346 53.1333 90.2545 53.1333 92.2307C53.1333 93.1469 53.8621 93.7112 55.4326 94.0107C56.7138 94.2552 58.01 94.8749 60.8669 96.6093C63.5435 98.2337 67.5276 97.449 69.3928 94.9299C69.9134 94.227 70.815 93.6095 71.6499 93.3854C72.4142 93.1797 73.2483 92.7608 73.5029 92.4541C74.0741 91.7666 73.7266 90.7446 72.8427 90.5114C72.31 90.3709 71.6895 88.0982 69.5878 78.5866C68.1595 72.1233 66.838 66.5389 66.6509 66.1761C66.3182 65.5316 64.8243 65.2694 64.3252 65.7682ZM96.5756 67.7772C95.9814 68.7076 95.7962 69.4283 95.9463 70.2258C96.0636 70.8474 96.2689 75.0854 96.4028 79.6436C96.6333 87.4936 96.6767 87.8616 97.2191 86.6128C97.899 85.0487 98.2819 71.9112 97.7462 68.5306L97.418 66.4587L96.5756 67.7772ZM68.2233 105.123C64.5368 105.928 59.2892 106.044 52.5674 105.47C50.0775 105.258 46.6661 105.081 44.9865 105.078C42.3782 105.073 41.8301 105.185 41.2299 105.847C40.4014 106.761 40.8345 107.824 42.1134 108.014C42.5461 108.079 44.2117 108.878 45.815 109.79C56.4591 115.848 67.5484 116.061 72.9329 110.313C73.87 109.313 74.6366 108.309 74.6366 108.082C74.6366 107.855 75.1458 107.492 75.7683 107.276C77.1075 106.81 77.3388 105.333 76.1705 104.708C75.1213 104.148 71.9234 104.315 68.2233 105.123ZM67.846 108.322C64.5398 108.958 60.3086 109.088 54.6423 108.727L49.9266 108.427L51.6243 109.225C56.8047 111.659 63.8906 112.103 67.9449 110.248C69.7893 109.404 70.9599 108.326 70.4393 107.952C70.3615 107.896 69.1947 108.063 67.846 108.322Z" fill="black"/>
</svg>
